<svg width="253" height="282" viewBox="0 0 253 282" fill="none" xmlns="http://www.w3.org/2000/svg">
<path d="M45.8 228.09L0 201.65V148.76L45.8 122.32L91.6 148.76V201.65L45.8 228.09ZM5 198.76L45.8 222.32L86.6 198.76V151.65L45.8 128.09L5 151.65V198.76Z" fill="#FDD245"/>
<path d="M45.7998 212.15L13.7998 193.68V156.68L45.7998 138.2L77.7998 156.68V193.68L45.7998 212.15ZM18.7998 190.79L45.7998 206.38L72.7998 190.79V159.61L45.7998 144L18.7998 159.58V190.79Z" fill="#FDD245"/>
<path d="M45.7998 197.14L26.7998 186.14V164.23L45.7998 153.23L64.7998 164.23V186.17L45.7998 197.14ZM31.7998 183.29L45.7998 191.37L59.7998 183.29V167.12L45.7998 159L31.7998 167.08V183.29Z" fill="#FDD245"/>
<path d="M206.8 228.09L161 201.65V148.76L206.8 122.32L252.6 148.76V201.65L206.8 228.09ZM166 198.76L206.8 222.32L247.6 198.76V151.65L206.8 128.09L166 151.65V198.76Z" fill="#FDD245"/>
<path d="M206.8 212.15L174.8 193.68V156.68L206.8 138.2L238.8 156.68V193.68L206.8 212.15ZM179.8 190.79L206.8 206.38L233.8 190.79V159.61L206.8 144L179.8 159.58V190.79Z" fill="#FDD245"/>
<path d="M206.8 197.14L187.8 186.14V164.23L206.8 153.23L225.8 164.23V186.17L206.8 197.14ZM192.8 183.29L206.8 191.37L220.8 183.29V167.12L206.8 159.04L192.8 167.12V183.29Z" fill="#FDD245"/>
<path d="M174.5 252.72V241.12L126.52 269.39L78.5 240.75V252.4L126.49 281.02L174.5 252.72Z" fill="#FDD245"/>
<path d="M164.8 215.57V228.32L126.5 250.43L88.2 228.32V217.88L78.2 223.65V234.09L126.5 261.98L174.8 234.09V221.34L164.8 215.57Z" fill="#FDD245"/>
<path d="M126.5 154.57L78.2 126.68V70.91L126.5 43L174.8 70.89V126.66L126.5 154.57ZM88.2 120.91L126.5 143L164.8 120.89V76.68L126.5 54.57L88.2 76.68V120.91Z" fill="#FDD245"/>
<path d="M143.79 58.0002C143.66 56.7302 140.59 26.7302 152.37 13.2402C154.079 11.218 156.203 9.58736 158.598 8.45889C160.993 7.33042 163.603 6.73061 166.25 6.7002L166.4 11.7002C164.443 11.7118 162.511 12.1488 160.739 12.9811C158.968 13.8134 157.398 15.021 156.14 16.5202C145.79 28.3702 148.74 57.1802 148.77 57.5202L143.79 58.0002Z" fill="#FDD245"/>
<path d="M166 18C170.971 18 175 13.9706 175 9C175 4.02944 170.971 0 166 0C161.029 0 157 4.02944 157 9C157 13.9706 161.029 18 166 18Z" fill="#FDD245"/>
<path d="M109.2 58.5305L104.2 58.0005C104.2 57.7105 107.2 28.9005 96.8301 17.0505C95.5711 15.5518 94.0016 14.3446 92.23 13.5123C90.4585 12.6801 88.5273 12.2427 86.5701 12.2305L86.7101 7.23047C89.3589 7.26076 91.9702 7.86047 94.3668 8.9889C96.7634 10.1173 98.8892 11.7481 100.6 13.7705C112.41 27.2605 109.35 57.2605 109.2 58.5305Z" fill="#FDD245"/>
<path d="M87 18.5C91.9706 18.5 96 14.4706 96 9.5C96 4.52944 91.9706 0.5 87 0.5C82.0294 0.5 78 4.52944 78 9.5C78 14.4706 82.0294 18.5 87 18.5Z" fill="#FDD245"/>
</svg>
