<svg width="119" height="109" viewBox="0 0 119 109" fill="none" xmlns="http://www.w3.org/2000/svg">
<path d="M44.174 73.9655C46.6549 71.4846 43.4357 69.3877 41.5159 68.6493C7.43434 91.2385 -13.8304 26.5584 33.1292 27.4444C38.7998 -6.57911 80.0887 4.85067 80.0887 28.3304C104.898 23.4575 111.986 33.2036 114.644 34.0896C116.77 34.7985 118.188 34.0896 118.631 33.2034C114.201 19.0271 84.5189 21.2467 84.0759 21.2467C66.7983 -18.1863 27.813 6.62313 29.5545 21.2467C-24.4614 29.221 4.74723 97.8883 44.174 73.9655Z" fill="#FDD245"/>
<path d="M59.6261 26.3965L50.4453 31.6755V42.4629L59.6261 47.7419L69.0365 42.0039V31.6755L59.6261 26.3965Z" stroke="#FDD245" stroke-width="2.75425"/>
<path d="M42.1808 43.3809L33 48.6598V59.4473L42.1808 64.7263L51.5912 58.9883V48.6598L42.1808 43.3809Z" stroke="#FDD245" stroke-width="1.3"/>
<path d="M77.0715 43.3809L67.8906 48.6598V59.4473L77.0715 64.7263L86.4818 58.9883V48.6598L77.0715 43.3809Z" stroke="#FDD245" stroke-width="1.3"/>
<path d="M51.5891 62.8906H49.5234V66.1039L59.8519 72.0715L70.4098 66.1039V62.8906H68.1146V64.9563L59.8519 69.3172L51.5891 64.4973V62.8906Z" fill="#FDD245"/>
<path d="M60.0833 73.6765L49.9844 67.709V70.4632L60.0833 76.2013L70.1822 70.2337V67.9385L60.0833 73.6765Z" fill="#FDD245"/>
<path fill-rule="evenodd" clip-rule="evenodd" d="M52.8823 17.9417C52.5896 18.3364 52.1202 18.5922 51.591 18.5922C50.7037 18.5922 49.9844 17.8729 49.9844 16.9856C49.9844 16.0982 50.7037 15.3789 51.591 15.3789C52.0607 15.3789 52.4833 15.5804 52.7771 15.9018C54.0599 16.0366 57.1769 16.8405 56.8688 26.8542C56.6851 27.0382 55.4151 27.8493 54.8031 28.2318C55.1783 25.0802 55.3032 18.7048 52.8823 17.9417ZM69.7225 16.9856C69.7225 17.8729 69.0031 18.5922 68.1158 18.5922C67.6657 18.5922 67.2587 18.4071 66.9671 18.1088C66.9675 18.1181 66.9677 18.1261 66.9677 18.1329C64.6725 18.8215 64.596 24.636 65.1315 28.0023L63.3267 26.8542C62.8419 20.5012 63.5093 16.6154 66.6597 16.3055C66.9158 15.7581 67.4715 15.3789 68.1158 15.3789C69.0031 15.3789 69.7225 16.0982 69.7225 16.9856Z" fill="#FDD245"/>
<path d="M32.7367 97.172C32.5527 97.2947 32.3022 97.4327 31.9853 97.586C31.6684 97.7393 31.2953 97.8671 30.866 97.9693C30.4469 98.0716 29.9869 98.1227 29.486 98.1227C28.6273 98.1124 27.8504 97.9591 27.1553 97.6627C26.4704 97.3662 25.8878 96.9624 25.4073 96.4513C24.9269 95.9402 24.5538 95.3524 24.288 94.688C24.0324 94.0133 23.9047 93.2978 23.9047 92.5413C23.9047 91.7133 24.0376 90.9518 24.3033 90.2567C24.5793 89.5513 24.9627 88.9431 25.4533 88.432C25.944 87.9107 26.5216 87.5069 27.186 87.2207C27.8607 86.9344 28.5967 86.7913 29.394 86.7913C30.0584 86.7913 30.6616 86.8833 31.2033 87.0673C31.7451 87.2411 32.2102 87.4507 32.5987 87.696L32.0007 89.076C31.694 88.8716 31.3209 88.6773 30.8813 88.4933C30.452 88.3093 29.9716 88.2173 29.44 88.2173C28.8982 88.2173 28.3871 88.3247 27.9067 88.5393C27.4262 88.754 27.002 89.0556 26.634 89.444C26.266 89.8324 25.9747 90.2873 25.76 90.8087C25.5556 91.3198 25.4533 91.8718 25.4533 92.4647C25.4533 93.0678 25.5453 93.63 25.7293 94.1513C25.9236 94.6624 26.1944 95.1071 26.542 95.4853C26.8998 95.8636 27.3291 96.16 27.83 96.3747C28.3309 96.5893 28.8931 96.6967 29.5167 96.6967C30.0789 96.6967 30.5798 96.6098 31.0193 96.436C31.4589 96.2622 31.8218 96.068 32.108 95.8533L32.7367 97.172ZM34.8885 86.132H36.3145V98H34.8885V86.132ZM38.2297 94.7647C38.2297 94.1309 38.3779 93.5584 38.6744 93.0473C38.981 92.5362 39.4002 92.1324 39.9317 91.836C40.4633 91.5396 41.0664 91.3913 41.741 91.3913C42.4362 91.3913 43.0444 91.5396 43.5657 91.836C44.087 92.1324 44.4908 92.5362 44.777 93.0473C45.0633 93.5584 45.2064 94.1309 45.2064 94.7647C45.2064 95.3984 45.0633 95.976 44.777 96.4973C44.4908 97.0084 44.0819 97.4122 43.5504 97.7087C43.029 98.0051 42.4208 98.1533 41.7257 98.1533C41.051 98.1533 40.4479 98.0153 39.9164 97.7393C39.395 97.4531 38.981 97.0596 38.6744 96.5587C38.3779 96.0476 38.2297 95.4496 38.2297 94.7647ZM39.6557 94.78C39.6557 95.1889 39.7477 95.562 39.9317 95.8993C40.1157 96.2264 40.361 96.4871 40.6677 96.6813C40.9846 96.8756 41.3322 96.9727 41.7104 96.9727C42.109 96.9727 42.4617 96.8756 42.7684 96.6813C43.0853 96.4871 43.3306 96.2264 43.5044 95.8993C43.6782 95.562 43.765 95.1889 43.765 94.78C43.765 94.3711 43.6782 94.0031 43.5044 93.676C43.3306 93.3387 43.0853 93.0729 42.7684 92.8787C42.4617 92.6742 42.109 92.572 41.7104 92.572C41.3219 92.572 40.9693 92.6742 40.6524 92.8787C40.3457 93.0831 40.1004 93.354 39.9164 93.6913C39.7426 94.0184 39.6557 94.3813 39.6557 94.78ZM49.1458 98.2453C48.5734 98.2453 48.0981 98.0716 47.7198 97.724C47.3518 97.3662 47.1576 96.9062 47.1372 96.344V91.652H48.5632V95.838C48.5836 96.1856 48.6807 96.4667 48.8545 96.6813C49.0385 96.896 49.3247 97.0084 49.7132 97.0187C50.071 97.0187 50.3878 96.9164 50.6638 96.712C50.9501 96.4973 51.1801 96.2111 51.3538 95.8533C51.5276 95.4853 51.6145 95.0713 51.6145 94.6113V91.652H53.0405V98H51.7372L51.6145 96.436L51.6912 96.712C51.5685 97.0084 51.3794 97.2742 51.1238 97.5093C50.8785 97.7342 50.5872 97.9131 50.2498 98.046C49.9125 98.1789 49.5445 98.2453 49.1458 98.2453ZM58.0836 98.1533C57.501 98.1533 56.9694 98.0153 56.489 97.7393C56.0187 97.4531 55.6456 97.0544 55.3696 96.5433C55.0936 96.022 54.9556 95.424 54.9556 94.7493C54.9556 94.044 55.0987 93.4409 55.385 92.94C55.6814 92.4391 56.0801 92.0558 56.581 91.79C57.0818 91.5242 57.6441 91.3913 58.2676 91.3913C58.7685 91.3913 59.2438 91.4987 59.6936 91.7133C60.1536 91.928 60.5114 92.2244 60.767 92.6027L60.7056 93.1087V86.132H62.1163V98H60.6903V96.4207L60.8436 96.8193C60.5472 97.2078 60.1638 97.5298 59.6936 97.7853C59.2234 98.0307 58.6867 98.1533 58.0836 98.1533ZM58.5283 96.942C58.9065 96.942 59.2438 96.8756 59.5403 96.7427C59.8367 96.5996 60.0821 96.4053 60.2763 96.16C60.4705 95.9147 60.6085 95.6233 60.6903 95.286V94.09C60.6085 93.7833 60.4603 93.5176 60.2456 93.2927C60.0412 93.0576 59.7907 92.8736 59.4943 92.7407C59.2081 92.5976 58.8861 92.526 58.5283 92.526C58.1398 92.526 57.7821 92.6231 57.455 92.8173C57.1381 93.0013 56.8825 93.2569 56.6883 93.584C56.4941 93.9111 56.397 94.2893 56.397 94.7187C56.397 95.1378 56.4941 95.516 56.6883 95.8533C56.8825 96.1804 57.1432 96.4462 57.4703 96.6507C57.7974 96.8449 58.1501 96.942 58.5283 96.942ZM67.8015 86.914C68.9157 86.914 69.7897 87.144 70.4235 87.604C71.0675 88.0538 71.3895 88.7591 71.3895 89.72C71.3895 90.3027 71.2566 90.8087 70.9908 91.238C70.725 91.6673 70.3519 92.0047 69.8715 92.25C69.4013 92.4953 68.8441 92.6333 68.2001 92.664L67.9855 91.8973C68.7317 91.9178 69.4013 92.0507 69.9942 92.296C70.587 92.5413 71.0573 92.8838 71.4048 93.3233C71.7524 93.7629 71.9261 94.2842 71.9261 94.8873C71.9261 95.4393 71.8239 95.9147 71.6195 96.3133C71.415 96.7018 71.139 97.0238 70.7915 97.2793C70.4439 97.5247 70.0504 97.7087 69.6108 97.8313C69.1713 97.9438 68.7164 98 68.2461 98H64.9495V86.914H67.8015ZM68.1081 91.7747C68.7215 91.7747 69.1661 91.606 69.4421 91.2687C69.7181 90.9211 69.8562 90.502 69.8562 90.0113C69.8562 89.4287 69.6773 89.0044 69.3195 88.7387C68.9617 88.4729 68.4813 88.34 67.8781 88.34H66.4368V91.7747H68.1081ZM68.1695 96.62C68.5784 96.62 68.9515 96.5587 69.2888 96.436C69.6364 96.3133 69.9073 96.1242 70.1015 95.8687C70.3059 95.6131 70.4081 95.2911 70.4081 94.9027C70.4081 94.4733 70.2906 94.136 70.0555 93.8907C69.8306 93.6453 69.5393 93.4716 69.1815 93.3693C68.8237 93.2569 68.4557 93.2007 68.0775 93.2007H66.4368V96.62H68.1695ZM77.0193 98.1533C76.2936 98.1533 75.67 98.0102 75.1487 97.724C74.6273 97.4276 74.2236 97.0289 73.9373 96.528C73.6613 96.0169 73.5233 95.4342 73.5233 94.78C73.5233 94.1564 73.6818 93.5891 73.9987 93.078C74.3156 92.5669 74.7398 92.158 75.2713 91.8513C75.8029 91.5447 76.3958 91.3913 77.05 91.3913C77.8882 91.3913 78.5833 91.6367 79.1353 92.1273C79.6873 92.618 80.0604 93.2927 80.2547 94.1513L75.026 95.9913L74.6887 95.148L78.982 93.584L78.6753 93.7833C78.5527 93.446 78.3482 93.1547 78.062 92.9093C77.7758 92.6538 77.4027 92.526 76.9427 92.526C76.5542 92.526 76.2067 92.6231 75.9 92.8173C75.5933 93.0013 75.3531 93.2569 75.1793 93.584C75.0056 93.9111 74.9187 94.2842 74.9187 94.7033C74.9187 95.1429 75.0107 95.5313 75.1947 95.8687C75.3787 96.1958 75.6291 96.4564 75.946 96.6507C76.2731 96.8347 76.6411 96.9267 77.05 96.9267C77.326 96.9267 77.5918 96.8756 77.8473 96.7733C78.1131 96.6711 78.3584 96.5382 78.5833 96.3747L79.2427 97.4327C78.9258 97.6473 78.568 97.8211 78.1693 97.954C77.7809 98.0869 77.3976 98.1533 77.0193 98.1533ZM84.9855 98.1533C84.2597 98.1533 83.6361 98.0102 83.1148 97.724C82.5935 97.4276 82.1897 97.0289 81.9035 96.528C81.6275 96.0169 81.4895 95.4342 81.4895 94.78C81.4895 94.1564 81.6479 93.5891 81.9648 93.078C82.2817 92.5669 82.7059 92.158 83.2375 91.8513C83.769 91.5447 84.3619 91.3913 85.0161 91.3913C85.8544 91.3913 86.5495 91.6367 87.1015 92.1273C87.6535 92.618 88.0266 93.2927 88.2208 94.1513L82.9921 95.9913L82.6548 95.148L86.9481 93.584L86.6415 93.7833C86.5188 93.446 86.3144 93.1547 86.0281 92.9093C85.7419 92.6538 85.3688 92.526 84.9088 92.526C84.5204 92.526 84.1728 92.6231 83.8661 92.8173C83.5595 93.0013 83.3193 93.2569 83.1455 93.584C82.9717 93.9111 82.8848 94.2842 82.8848 94.7033C82.8848 95.1429 82.9768 95.5313 83.1608 95.8687C83.3448 96.1958 83.5953 96.4564 83.9121 96.6507C84.2393 96.8347 84.6073 96.9267 85.0161 96.9267C85.2921 96.9267 85.5579 96.8756 85.8135 96.7733C86.0793 96.6711 86.3246 96.5382 86.5495 96.3747L87.2088 97.4327C86.8919 97.6473 86.5341 97.8211 86.1355 97.954C85.747 98.0869 85.3637 98.1533 84.9855 98.1533ZM91.7863 98.1227C91.3365 98.1227 90.897 98.046 90.4676 97.8927C90.0485 97.7291 89.701 97.4889 89.425 97.172L90.023 96.344C90.2887 96.5996 90.5596 96.7938 90.8356 96.9267C91.1218 97.0493 91.403 97.1107 91.679 97.1107C91.8834 97.1107 92.0725 97.0851 92.2463 97.034C92.4201 96.9829 92.5581 96.9011 92.6603 96.7887C92.7727 96.666 92.829 96.5024 92.829 96.298C92.829 96.0731 92.7523 95.8942 92.599 95.7613C92.4558 95.6284 92.2667 95.5211 92.0316 95.4393C91.8067 95.3576 91.5665 95.2809 91.311 95.2093C90.7896 95.0356 90.391 94.7953 90.115 94.4887C89.839 94.182 89.701 93.8089 89.701 93.3693C89.701 93.032 89.7827 92.7202 89.9463 92.434C90.1201 92.1376 90.3705 91.8973 90.6976 91.7133C91.035 91.5293 91.449 91.4373 91.9396 91.4373C92.3792 91.4373 92.7727 91.4936 93.1203 91.606C93.4678 91.7082 93.795 91.882 94.1016 92.1273L93.5343 93.0167C93.3503 92.8224 93.1305 92.6793 92.875 92.5873C92.6194 92.4953 92.3894 92.4442 92.185 92.434C92.0112 92.4238 91.8425 92.4493 91.679 92.5107C91.5256 92.572 91.3978 92.6589 91.2956 92.7713C91.1934 92.8838 91.1423 93.0167 91.1423 93.17C91.1423 93.3847 91.2138 93.5584 91.357 93.6913C91.5001 93.8242 91.6841 93.9316 91.909 94.0133C92.1441 94.0849 92.3741 94.1616 92.599 94.2433C92.9158 94.3353 93.197 94.458 93.4423 94.6113C93.6876 94.7647 93.8818 94.9538 94.025 95.1787C94.1783 95.4036 94.255 95.6847 94.255 96.022C94.255 96.4002 94.163 96.7529 93.979 97.08C93.8052 97.3969 93.5343 97.6524 93.1663 97.8467C92.8085 98.0307 92.3485 98.1227 91.7863 98.1227Z" fill="#FDD245"/>
<path d="M47.4107 101.793H50.8207V102.138H49.288V107H48.9287V102.138H47.4107V101.793ZM52.7339 107.059C52.4356 107.059 52.1716 106.993 51.9419 106.861C51.7121 106.729 51.5312 106.55 51.3992 106.325C51.2721 106.096 51.2085 105.839 51.2085 105.555C51.2085 105.277 51.277 105.022 51.4139 104.793C51.5508 104.563 51.7341 104.38 51.9639 104.243C52.1985 104.106 52.4576 104.037 52.7412 104.037C53.0834 104.037 53.3694 104.138 53.5992 104.338C53.8339 104.538 54.0025 104.8 54.1052 105.123L51.5972 106.091L51.4945 105.841L53.7899 104.947L53.7165 105.049C53.6334 104.854 53.5063 104.685 53.3352 104.543C53.169 104.402 52.9636 104.331 52.7192 104.331C52.4992 104.331 52.3012 104.384 52.1252 104.492C51.9492 104.6 51.8074 104.744 51.6999 104.925C51.5972 105.106 51.5459 105.311 51.5459 105.541C51.5459 105.756 51.5948 105.956 51.6925 106.142C51.7952 106.328 51.937 106.477 52.1179 106.589C52.2988 106.702 52.5065 106.758 52.7412 106.758C52.8976 106.758 53.0468 106.729 53.1885 106.67C53.3352 106.611 53.4648 106.536 53.5772 106.443L53.7532 106.692C53.6163 106.8 53.4574 106.888 53.2765 106.956C53.1005 107.024 52.9196 107.059 52.7339 107.059ZM57.7154 106.721C57.5834 106.829 57.4343 106.912 57.2681 106.971C57.1019 107.029 56.9283 107.059 56.7474 107.059C56.4541 107.059 56.1925 106.995 55.9628 106.868C55.733 106.736 55.5521 106.558 55.4201 106.333C55.2881 106.108 55.2221 105.851 55.2221 105.563C55.2221 105.274 55.2905 105.018 55.4274 104.793C55.5643 104.568 55.7452 104.392 55.9701 104.265C56.1999 104.133 56.4492 104.067 56.7181 104.067C56.9185 104.067 57.1043 104.096 57.2754 104.155C57.4465 104.213 57.5957 104.296 57.7228 104.404L57.5394 104.639C57.4368 104.556 57.317 104.487 57.1801 104.433C57.0432 104.38 56.8965 104.353 56.7401 104.353C56.525 104.353 56.327 104.406 56.1461 104.514C55.9701 104.622 55.8283 104.768 55.7208 104.954C55.6181 105.135 55.5668 105.338 55.5668 105.563C55.5668 105.783 55.6181 105.986 55.7208 106.171C55.8283 106.352 55.9725 106.496 56.1534 106.604C56.3392 106.712 56.5445 106.765 56.7694 106.765C56.9161 106.765 57.053 106.743 57.1801 106.699C57.3072 106.65 57.4221 106.587 57.5248 106.509L57.7154 106.721ZM59.1133 107V101.427H59.4506V104.895L59.4286 104.771C59.5264 104.57 59.6828 104.402 59.898 104.265C60.118 104.123 60.3697 104.052 60.6533 104.052C60.9222 104.052 61.1397 104.133 61.306 104.294C61.4722 104.45 61.5577 104.656 61.5626 104.91V107H61.2106V105.005C61.2057 104.82 61.1471 104.666 61.0346 104.543C60.9222 104.421 60.7584 104.358 60.5433 104.353C60.3526 104.353 60.1742 104.402 60.008 104.499C59.8417 104.597 59.7073 104.729 59.6046 104.895C59.5068 105.062 59.458 105.25 59.458 105.46V107H59.1133ZM63.3059 104.133H63.6506V107H63.3059V104.133ZM63.2326 103.077C63.2326 103.008 63.2595 102.952 63.3132 102.908C63.367 102.859 63.4257 102.835 63.4892 102.835C63.5577 102.835 63.6163 102.859 63.6652 102.908C63.7141 102.952 63.7386 103.008 63.7386 103.077C63.7386 103.15 63.7141 103.211 63.6652 103.26C63.6163 103.304 63.5577 103.326 63.4892 103.326C63.4257 103.326 63.367 103.302 63.3132 103.253C63.2595 103.204 63.2326 103.145 63.2326 103.077ZM66.6397 107.059C66.3415 107.059 66.0775 106.993 65.8477 106.861C65.6179 106.729 65.437 106.55 65.305 106.325C65.1779 106.096 65.1144 105.839 65.1144 105.555C65.1144 105.277 65.1828 105.022 65.3197 104.793C65.4566 104.563 65.6399 104.38 65.8697 104.243C66.1044 104.106 66.3635 104.037 66.647 104.037C66.9893 104.037 67.2753 104.138 67.505 104.338C67.7397 104.538 67.9084 104.8 68.011 105.123L65.503 106.091L65.4004 105.841L67.6957 104.947L67.6224 105.049C67.5393 104.854 67.4121 104.685 67.241 104.543C67.0748 104.402 66.8695 104.331 66.625 104.331C66.405 104.331 66.207 104.384 66.031 104.492C65.855 104.6 65.7133 104.744 65.6057 104.925C65.503 105.106 65.4517 105.311 65.4517 105.541C65.4517 105.756 65.5006 105.956 65.5984 106.142C65.701 106.328 65.8428 106.477 66.0237 106.589C66.2046 106.702 66.4124 106.758 66.647 106.758C66.8035 106.758 66.9526 106.729 67.0944 106.67C67.241 106.611 67.3706 106.536 67.483 106.443L67.659 106.692C67.5221 106.8 67.3633 106.888 67.1824 106.956C67.0064 107.024 66.8255 107.059 66.6397 107.059ZM70.0813 107.059C69.915 107.059 69.7415 107.029 69.5606 106.971C69.3797 106.907 69.233 106.807 69.1206 106.67L69.2819 106.443C69.3797 106.545 69.4946 106.628 69.6266 106.692C69.7635 106.751 69.9077 106.78 70.0593 106.78C70.1717 106.78 70.2768 106.765 70.3746 106.736C70.4773 106.702 70.5604 106.646 70.6239 106.567C70.6875 106.489 70.7193 106.384 70.7193 106.252C70.7193 106.115 70.6802 106.01 70.6019 105.937C70.5286 105.863 70.4333 105.805 70.3159 105.761C70.2035 105.712 70.0837 105.668 69.9566 105.629C69.7464 105.56 69.5728 105.467 69.4359 105.35C69.3039 105.233 69.2379 105.066 69.2379 104.851C69.2379 104.695 69.2746 104.558 69.3479 104.441C69.4262 104.323 69.5313 104.233 69.6633 104.169C69.7953 104.101 69.9444 104.067 70.1106 104.067C70.2622 104.067 70.4113 104.091 70.5579 104.14C70.7095 104.189 70.8464 104.272 70.9686 104.389L70.8146 104.631C70.7364 104.524 70.6313 104.45 70.4993 104.411C70.3722 104.372 70.2597 104.35 70.1619 104.345C70.0788 104.345 69.9908 104.362 69.8979 104.397C69.8099 104.431 69.7342 104.482 69.6706 104.551C69.6119 104.614 69.5826 104.7 69.5826 104.807C69.5826 104.92 69.6144 105.013 69.6779 105.086C69.7415 105.154 69.8222 105.211 69.9199 105.255C70.0226 105.299 70.1277 105.34 70.2353 105.379C70.377 105.423 70.509 105.477 70.6313 105.541C70.7584 105.599 70.861 105.68 70.9393 105.783C71.0224 105.88 71.0639 106.012 71.0639 106.179C71.0639 106.345 71.0273 106.496 70.9539 106.633C70.8806 106.765 70.7706 106.87 70.6239 106.949C70.4822 107.022 70.3013 107.059 70.0813 107.059Z" fill="#FDD245"/>
</svg>
