<svg width="631" height="566" viewBox="0 0 631 566" fill="none" xmlns="http://www.w3.org/2000/svg">
<path d="M560.226 354.234H332.124C328.046 354.234 324.727 350.915 324.727 346.836V14.5853C324.727 10.5066 328.046 7.1875 332.124 7.1875H560.226C564.305 7.1875 567.624 10.5053 567.624 14.5853V346.836C567.624 350.916 564.305 354.234 560.226 354.234ZM332.124 7.503C328.219 7.503 325.042 10.6807 325.042 14.5853V346.836C325.042 350.742 328.22 353.918 332.124 353.918H560.226C564.132 353.918 567.308 350.742 567.308 346.836V14.5853C567.308 10.6807 564.13 7.503 560.226 7.503H332.124Z" fill="#E0E0E0"/>
<path d="M297.188 354.234H69.0853C65.0066 354.234 61.6875 350.915 61.6875 346.836V14.5853C61.6875 10.5066 65.0053 7.1875 69.0853 7.1875H297.188C301.267 7.1875 304.586 10.5053 304.586 14.5853V346.836C304.586 350.916 301.267 354.234 297.188 354.234ZM69.0853 7.503C65.1807 7.503 62.003 10.6807 62.003 14.5853V346.836C62.003 350.742 65.1807 353.918 69.0853 353.918H297.188C301.094 353.918 304.27 350.742 304.27 346.836V14.5853C304.27 10.6807 301.093 7.503 297.188 7.503H69.0853Z" fill="#E0E0E0"/>
<path d="M631 431.305H0V431.62H631V431.305Z" fill="#E0E0E0"/>
<path d="M85.4787 449.305H65.2109V449.62H85.4787V449.305Z" fill="#E0E0E0"/>
<path d="M282.539 445.883H214.984V446.198H282.539V445.883Z" fill="#E0E0E0"/>
<path d="M132.486 461.031H86.7383V461.347H132.486V461.031Z" fill="#E0E0E0"/>
<path d="M531.986 445.719H477.48V446.034H531.986V445.719Z" fill="#E0E0E0"/>
<path d="M551.219 445.719H543.23V446.034H551.219V445.719Z" fill="#E0E0E0"/>
<path d="M467.068 453.582H399.059V453.898H467.068V453.582Z" fill="#E0E0E0"/>
<path d="M357.76 112.323C353.798 121.975 351.842 132.113 351.71 142.204L336.543 146.655L342.346 176.574L358.079 175.033C361.972 184.341 367.578 193.011 374.861 200.484L367.305 214.317L392.566 231.369L402.57 219.191C412.223 223.151 422.36 225.108 432.45 225.241L436.902 240.409L466.821 234.604L465.28 218.873C474.588 214.976 483.259 209.371 490.732 202.088L504.564 209.644L521.617 184.384L509.438 174.378C513.398 164.725 515.356 154.588 515.487 144.499L530.652 140.047L524.851 110.127L509.119 111.668C505.223 102.361 499.617 93.6912 492.334 86.2189L499.89 72.3861L474.63 55.3339L464.626 67.5122C454.972 63.5508 444.834 61.5922 434.745 61.4597L430.293 46.293L400.374 52.0982L401.916 67.829C392.607 71.7235 383.937 77.3281 376.465 84.6111L362.632 77.0555L345.579 102.317L357.758 112.322L357.76 112.323ZM456.684 109.157C475.567 121.906 480.543 147.551 467.795 166.437C455.045 185.322 429.398 190.296 410.515 177.549C391.629 164.799 386.656 139.155 399.404 120.269C412.154 101.383 437.797 96.407 456.684 109.157Z" fill="#EBEBEB"/>
<path d="M171.759 31.7443C168.195 37.1722 165.798 43.1339 164.521 49.2836L154.727 50.2061V69.174L164.521 70.0965C165.797 76.2437 168.195 82.2067 171.759 87.6345L165.503 95.1901L178.915 108.603L186.471 102.347C191.899 105.911 197.86 108.309 204.01 109.585L204.933 119.38H223.899L224.822 109.586C230.972 108.309 236.933 105.911 242.361 102.348L249.917 108.604L263.329 95.1914L257.074 87.6345C260.637 82.2067 263.034 76.245 264.311 70.0965L274.104 69.174V50.2074L264.311 49.2849C263.034 43.1364 260.636 37.1747 257.072 31.7469L263.328 24.19L249.915 10.7775L242.36 17.0332C236.931 13.4693 230.969 11.0703 224.822 9.79438L223.899 0H204.931L204.009 9.79565C197.86 11.0715 191.899 13.4693 186.471 17.0332L178.915 10.7775L165.503 24.19L171.759 31.7443ZM232.573 41.5337C242.6 51.5603 242.6 67.8186 232.573 77.8465C222.545 87.8743 206.287 87.8731 196.26 77.8465C186.234 67.8199 186.232 51.5615 196.26 41.5337C206.288 31.5058 222.545 31.5058 232.573 41.5337Z" fill="#E0E0E0"/>
<path d="M213.292 164.612C208.663 171.663 205.55 179.407 203.89 187.395L191.168 188.593V213.231L203.891 214.43C205.548 222.415 208.663 230.16 213.292 237.211L205.166 247.027L222.588 264.449L232.403 256.323C239.453 260.952 247.198 264.067 255.185 265.724L256.383 278.447H281.021L282.22 265.725C290.207 264.065 297.952 260.952 305.003 256.323L314.817 264.449L332.239 247.027L324.115 237.211C328.744 230.16 331.857 222.415 333.515 214.43L346.236 213.231V188.593L333.515 187.394C331.857 179.408 328.741 171.663 324.112 164.612L332.238 154.796L314.816 137.374L305.002 145.5C297.95 140.871 290.205 137.755 282.22 136.097L281.021 123.375H256.383L255.185 136.098C247.198 137.757 239.455 140.87 232.404 145.499L222.589 137.373L205.166 154.796L213.292 164.612ZM292.29 177.328C305.313 190.353 305.315 211.473 292.29 224.498C279.263 237.524 258.144 237.523 245.12 224.498C232.093 211.471 232.095 190.354 245.12 177.328C258.146 164.303 279.263 164.302 292.29 177.328Z" fill="#EBEBEB"/>
<path d="M286.48 63.3931C284.662 66.1632 283.439 69.2046 282.787 72.3432L277.789 72.8139V82.4922L282.787 82.9629C283.438 86.1003 284.661 89.1417 286.479 91.913L283.288 95.7684L290.131 102.612L293.987 99.4207C296.757 101.239 299.8 102.462 302.937 103.113L303.408 108.112H313.086L313.557 103.115C316.694 102.463 319.737 101.239 322.507 99.4207L326.362 102.612L333.206 95.7684L330.014 91.913C331.833 89.1429 333.056 86.1015 333.707 82.9629L338.705 82.4922V72.8139L333.707 72.3432C333.056 69.2059 331.832 66.1632 330.013 63.3943L333.205 59.5389L326.361 52.6951L322.506 55.8867C319.735 54.0682 316.693 52.844 313.555 52.1928L313.085 47.1953H303.406L302.936 52.1941C299.798 52.8453 296.756 54.0682 293.987 55.8867L290.131 52.6951L283.288 59.5389L286.479 63.3943L286.48 63.3931ZM317.513 68.3881C322.629 73.5042 322.629 81.8006 317.513 86.918C312.396 92.0354 304.099 92.0342 298.983 86.918C293.866 81.8006 293.866 73.5055 298.983 68.3881C304.101 63.2719 312.396 63.2707 317.513 68.3881Z" fill="#E6E6E6"/>
<path d="M331.235 18.5301C329.997 20.4155 329.166 22.4852 328.721 24.6218L325.32 24.9423V31.53L328.721 31.8505C329.164 33.9858 329.997 36.0568 331.235 37.9422L329.062 40.5659L333.72 45.2239L336.344 43.052C338.229 44.2901 340.3 45.123 342.436 45.5659L342.756 48.9683H349.344L349.664 45.5672C351.8 45.1242 353.871 44.2913 355.756 43.0533L358.38 45.2252L363.038 40.5672L360.866 37.9435C362.104 36.058 362.935 33.9871 363.38 31.8518L366.781 31.5312V24.9436L363.38 24.6231C362.937 22.4877 362.104 20.4168 360.866 18.5314L363.039 15.9077L358.381 11.2496L355.757 13.4228C353.872 12.1848 351.801 11.3519 349.666 10.9089L349.345 7.50781H342.757L342.437 10.9102C340.302 11.3531 338.231 12.186 336.345 13.4241L333.721 11.2509L329.063 15.9089L331.237 18.5326L331.235 18.5301ZM352.356 21.9299C355.838 25.4118 355.838 31.0593 352.356 34.5411C348.873 38.0242 343.227 38.023 339.744 34.5411C336.261 31.058 336.261 25.4118 339.744 21.9299C343.227 18.4468 348.872 18.4468 352.355 21.9299H352.356Z" fill="#F0F0F0"/>
<path d="M535.298 161.788C534.06 163.673 533.228 165.743 532.784 167.88L529.383 168.2V174.788L532.784 175.108C533.227 177.244 534.06 179.315 535.298 181.2L533.125 183.824L537.783 188.482L540.406 186.31C542.292 187.548 544.363 188.381 546.498 188.824L546.819 192.226H553.406L553.727 188.825C555.862 188.382 557.933 187.549 559.818 186.311L562.442 188.483L567.1 183.825L564.928 181.201C566.166 179.316 566.998 177.245 567.442 175.11L570.843 174.789V168.201L567.442 167.881C566.999 165.746 566.166 163.675 564.928 161.789L567.1 159.166L562.442 154.507L559.818 156.681C557.933 155.443 555.862 154.61 553.727 154.167L553.406 150.766H546.819L546.498 154.168C544.363 154.611 542.292 155.444 540.406 156.682L537.783 154.509L533.125 159.167L535.298 161.79V161.788ZM556.419 165.188C559.901 168.67 559.901 174.317 556.419 177.799C552.936 181.282 547.289 181.281 543.806 177.799C540.323 174.316 540.323 168.67 543.806 165.188C547.289 161.705 552.936 161.705 556.417 165.188H556.419Z" fill="#F0F0F0"/>
<path d="M106.19 142.432C103.533 146.479 101.746 150.925 100.793 155.511L93.4883 156.199V170.343L100.793 171.031C101.744 175.616 103.533 180.062 106.19 184.11L101.525 189.745L111.526 199.747L117.161 195.082C121.209 197.74 125.655 199.528 130.24 200.48L130.928 207.784H145.073L145.76 200.48C150.346 199.527 154.791 197.74 158.84 195.082L164.475 199.747L174.476 189.745L169.812 184.11C172.469 180.062 174.256 175.617 175.208 171.031L182.511 170.342V156.198L175.208 155.51C174.256 150.925 172.468 146.479 169.81 142.432L174.475 136.797L164.473 126.795L158.838 131.461C154.79 128.803 150.344 127.015 145.759 126.062L145.071 118.758H130.927L130.239 126.062C125.654 127.014 121.208 128.801 117.161 131.46L111.526 126.794L101.523 136.797L106.19 142.432ZM151.542 149.731C159.019 157.208 159.019 169.332 151.542 176.811C144.063 184.29 131.939 184.288 124.462 176.811C116.984 169.332 116.984 157.21 124.462 149.731C131.939 142.254 144.063 142.252 151.542 149.731Z" fill="#F0F0F0"/>
<path d="M244.714 317.413C242.056 321.461 240.269 325.907 239.316 330.493L232.012 331.181V345.325L239.316 346.013C240.268 350.596 242.056 355.044 244.714 359.092L240.048 364.727L250.049 374.728L255.684 370.064C259.733 372.722 264.179 374.509 268.764 375.462L269.451 382.766H283.596L284.284 375.462C288.87 374.509 293.315 372.722 297.363 370.064L302.998 374.728L312.999 364.727L308.335 359.092C310.993 355.044 312.78 350.599 313.731 346.013L321.034 345.324V331.179L313.731 330.492C312.78 325.907 310.991 321.461 308.334 317.413L312.998 311.779L302.997 301.777L297.362 306.442C293.313 303.784 288.867 301.996 284.283 301.043L283.595 293.738H269.45L268.762 301.043C264.178 301.994 259.732 303.783 255.684 306.44L250.049 301.775L240.047 311.777L244.712 317.412L244.714 317.413ZM290.065 324.713C297.542 332.19 297.542 344.314 290.065 351.793C282.586 359.27 270.462 359.27 262.985 351.793C255.506 344.315 255.508 332.191 262.985 324.713C270.462 317.235 282.586 317.235 290.065 324.713Z" fill="#F0F0F0"/>
<path d="M101.87 262.77C84.255 283.374 79.1111 313.874 88.9913 339.117C99.9707 329.317 107.702 314.382 108.191 301.317C108.681 288.253 105.261 275.395 101.87 262.77Z" fill="#E6E6E6"/>
<path d="M98.7968 341.498C92.8199 350.657 89.959 361.809 90.7894 372.714C100.312 369.399 108.707 358.643 113.74 349.904C118.773 341.168 121.587 331.354 124.148 321.602C113.832 325.231 104.775 332.341 98.798 341.498H98.7968Z" fill="#E6E6E6"/>
<path d="M96.4921 298.724C89.4198 324.162 85.8093 350.539 85.8282 376.944C85.8332 384.46 86.1399 391.973 86.7255 399.467C86.7722 400.07 87.7199 400.075 87.672 399.467C85.6137 373.125 87.1407 346.536 92.2581 320.612C93.6942 313.337 95.4181 306.12 97.4045 298.976C97.5673 298.388 96.6549 298.138 96.4921 298.725V298.724Z" fill="#E0E0E0"/>
<path d="M87.1397 381.356C94.371 364.155 103.87 348.047 114.848 332.98C115.208 332.487 114.386 332.015 114.03 332.502C102.999 347.641 93.4926 363.821 86.226 381.104C85.99 381.664 86.9062 381.909 87.1384 381.355L87.1397 381.356Z" fill="#E0E0E0"/>
<path d="M76.7818 355.77C81.7654 363.406 84.1518 372.706 83.459 381.799C75.5185 379.034 68.5195 370.065 64.322 362.78C60.1259 355.495 57.7786 347.312 55.6445 339.18C64.2463 342.207 71.7981 348.135 76.7818 355.771V355.77Z" fill="#E6E6E6"/>
<path d="M86.9302 387.792C80.9899 373.674 73.1567 360.592 64.1486 348.228C63.7939 347.741 62.9724 348.213 63.3308 348.707C72.2859 360.997 80.1116 374.007 86.0178 388.043C86.25 388.596 87.1662 388.354 86.9302 387.792Z" fill="#E0E0E0"/>
<path d="M87.1761 392.585C98.3814 381.058 109.821 369.76 121.028 358.233C121.453 357.797 120.784 357.127 120.359 357.565C109.154 369.092 97.7138 380.389 86.5072 391.916C86.0819 392.353 86.7508 393.023 87.1761 392.585Z" fill="#E0E0E0"/>
<path d="M121.372 352.859C111.651 362.235 102.793 372.506 94.9492 383.501H96.7274C104.126 383.154 111.31 379.504 115.951 373.732C120.594 367.959 122.62 360.161 121.372 352.859Z" fill="#E6E6E6"/>
<path d="M75.2517 330.558C79.4252 337.384 83.3588 344.355 87.0426 351.458C87.3228 351.999 88.1405 351.521 87.8604 350.98C84.1753 343.877 80.2429 336.907 76.0695 330.08C75.7528 329.561 74.9337 330.036 75.2517 330.558Z" fill="#E0E0E0"/>
<path d="M65.2843 296.035C63.6929 303.196 62.1142 312.507 62.0977 319.963C62.0813 327.419 64.3567 334.694 68.5933 339.69C72.8298 344.687 81.3836 346.875 84.8314 344.016L65.2843 296.035Z" fill="#E6E6E6"/>
<path d="M109.86 395.836H65.0703V403.707H109.86V395.836Z" fill="#E0E0E0"/>
<path d="M100.659 431.745H74.2892L69.4961 401.902H104.445L100.659 431.745Z" fill="#E0E0E0"/>
<path d="M555.085 262.77C537.47 283.374 532.326 313.874 542.206 339.117C553.186 329.317 560.917 314.382 561.406 301.317C561.896 288.253 558.476 275.395 555.085 262.77Z" fill="#E6E6E6"/>
<path d="M552.012 341.498C546.035 350.657 543.174 361.809 544.004 372.714C553.527 369.399 561.922 358.643 566.955 349.904C571.988 341.168 574.802 331.354 577.363 321.602C567.047 325.231 557.99 332.341 552.013 341.498H552.012Z" fill="#E6E6E6"/>
<path d="M549.707 298.724C542.635 324.162 539.024 350.539 539.043 376.944C539.048 384.46 539.355 391.973 539.94 399.467C539.987 400.07 540.935 400.075 540.887 399.467C538.829 373.125 540.356 346.536 545.473 320.612C546.909 313.337 548.633 306.12 550.619 298.976C550.782 298.388 549.87 298.138 549.707 298.725V298.724Z" fill="#E0E0E0"/>
<path d="M540.355 381.356C547.586 364.155 557.085 348.047 568.063 332.98C568.423 332.487 567.601 332.015 567.245 332.502C556.214 347.641 546.707 363.821 539.441 381.104C539.205 381.664 540.121 381.909 540.353 381.355L540.355 381.356Z" fill="#E0E0E0"/>
<path d="M529.997 355.77C534.98 363.406 537.365 372.706 536.674 381.799C528.733 379.034 521.734 370.065 517.537 362.78C513.341 355.495 510.993 347.312 508.859 339.18C517.461 342.207 525.013 348.135 529.997 355.771V355.77Z" fill="#E6E6E6"/>
<path d="M540.145 387.792C534.205 373.674 526.372 360.592 517.363 348.228C517.009 347.741 516.187 348.213 516.546 348.707C525.501 360.997 533.326 374.007 539.233 388.043C539.465 388.596 540.381 388.354 540.145 387.792Z" fill="#E0E0E0"/>
<path d="M540.391 392.585C551.596 381.058 563.036 369.76 574.243 358.233C574.668 357.797 573.999 357.127 573.574 357.565C562.369 369.092 550.929 380.389 539.722 391.916C539.297 392.353 539.966 393.023 540.391 392.585Z" fill="#E0E0E0"/>
<path d="M574.587 352.859C564.865 362.235 556.007 372.506 548.164 383.501H549.942C557.341 383.154 564.525 379.504 569.166 373.732C573.809 367.959 575.833 360.161 574.585 352.859H574.587Z" fill="#E6E6E6"/>
<path d="M528.467 330.558C532.641 337.384 536.574 344.355 540.257 351.458C540.538 351.999 541.355 351.521 541.075 350.98C537.39 343.877 533.458 336.907 529.284 330.08C528.968 329.561 528.149 330.036 528.467 330.558Z" fill="#E0E0E0"/>
<path d="M518.499 296.035C516.908 303.196 515.329 312.507 515.313 319.963C515.296 327.419 517.572 334.694 521.808 339.69C526.045 344.687 534.598 346.875 538.046 344.016L518.499 296.035Z" fill="#E6E6E6"/>
<path d="M563.075 395.836H518.285V403.707H563.075V395.836Z" fill="#E0E0E0"/>
<path d="M553.877 431.745H527.508L522.715 401.902H557.663L553.877 431.745Z" fill="#E0E0E0"/>
<path d="M248.876 510.861C248.876 519.553 214.867 526.6 172.913 526.6C130.959 526.6 96.9492 519.553 96.9492 510.861C96.9492 502.168 130.959 495.121 172.913 495.121C214.867 495.121 248.876 502.168 248.876 510.861Z" fill="#F5F5F5"/>
<path d="M362.65 565.706C401.902 565.706 433.722 558.659 433.722 549.966C433.722 541.273 401.902 534.227 362.65 534.227C323.398 534.227 291.578 541.273 291.578 549.966C291.578 558.659 323.398 565.706 362.65 565.706Z" fill="#F5F5F5"/>
<path d="M560.618 485.836C560.618 495.434 528.758 503.215 489.457 503.215C450.156 503.215 418.297 495.435 418.297 485.836C418.297 476.237 450.156 468.457 489.457 468.457C528.758 468.457 560.618 476.237 560.618 485.836Z" fill="#F5F5F5"/>
<path d="M387.487 70.6865C397.349 59.6654 396.411 42.7357 385.39 32.8719C374.369 23.0081 357.44 23.9471 347.576 34.9681C339.962 43.4765 338.813 55.4958 343.743 65.0769L340.86 72.5858L349.357 72.4697C349.466 72.5706 349.561 72.6817 349.672 72.7827C360.693 82.6465 377.623 81.7075 387.487 70.6865Z" fill="#407BFF"/>
<path d="M396.925 47.1036C396.764 47.1036 396.628 46.9837 396.61 46.8209C395.716 38.3011 390.185 30.319 382.523 26.4875C382.366 26.4093 382.303 26.22 382.381 26.0648C382.459 25.9095 382.654 25.8464 382.804 25.9234C390.656 29.8495 396.323 38.026 397.239 46.7553C397.256 46.9282 397.13 47.0834 396.957 47.1011H396.925V47.1036Z" fill="#407BFF"/>
<path d="M397.094 55.0433C397.07 55.0433 397.046 55.0408 397.021 55.0345C396.85 54.9941 396.746 54.8238 396.786 54.6547C397.083 53.4116 397.119 52.0877 396.891 50.8295C396.86 50.6579 396.973 50.4938 397.144 50.4623C397.325 50.4307 397.48 50.5443 397.512 50.7172C397.754 52.06 397.716 53.4734 397.399 54.801C397.365 54.9462 397.237 55.0433 397.094 55.0433Z" fill="#407BFF"/>
<path d="M367.001 64.2344L354.727 55.095L357.917 50.8117L366.146 56.94L377.455 43.4492L381.548 46.8793L367.001 64.2344Z" fill="white"/>
<path d="M319.453 124.571C319.453 124.571 345.982 158.675 354.108 163.856C362.234 169.036 389.24 187.501 389.24 187.501L398.08 169.786L355.66 147.194L328.5 119.383L319.453 124.571Z" fill="#BF5E60"/>
<path d="M319.452 124.571C319.452 124.571 316.561 122.204 316.163 117.499C315.766 112.794 318.551 92.0748 320.541 92.2868C322.531 92.4988 322 93.8252 322.531 100.192C323.061 106.559 324.654 113.395 324.654 113.395L328.501 119.382L319.453 124.57L319.452 124.571Z" fill="#BF5E60"/>
<path d="M318.397 120.967C317.213 118.996 317.536 116.216 317.849 113.526C318.044 111.849 318.229 110.265 318.055 108.934C317.933 107.99 317.78 106.816 318.193 105.774C318.613 104.713 319.827 103.831 320.974 104.218C322.021 104.571 322.457 105.717 322.742 106.791L324.667 113.985L324.058 114.147L322.134 106.954C321.878 105.996 321.536 105.074 320.772 104.816C319.98 104.551 319.087 105.23 318.779 106.006C318.427 106.897 318.561 107.936 318.681 108.853C318.865 110.262 318.675 111.883 318.475 113.601C318.175 116.186 317.864 118.858 318.936 120.644L318.396 120.97L318.397 120.967Z" fill="#A74145"/>
<path d="M438.758 450.782L445.386 466.129L457.717 463.583L453.421 446.164L438.758 450.782Z" fill="#BF5E60"/>
<path d="M441.992 464.434C441.764 463.817 442.149 463.145 442.769 462.97L446.434 461.939C447.353 461.657 448.835 463.058 449.613 463.646C452.961 466.186 454.34 464.412 455.942 460.561C457.502 459.87 458.523 461.63 458.812 462.1L465.321 472.424C465.875 473.284 465.643 474.427 464.804 474.981C464.655 475.079 464.492 475.155 464.32 475.204C459.388 476.722 457.055 477.442 450.917 479.331L432.144 485.111C427.027 486.686 424.344 481.755 426.302 480.62C435.123 475.565 440.958 470.655 443.02 466.941C443.315 466.443 442.407 465.566 441.992 464.434Z" fill="#263238"/>
<path d="M445.513 469.992C445.439 469.992 445.366 469.966 445.305 469.914C444.241 468.984 442.782 468.56 441.417 468.783C441.238 468.812 441.082 468.695 441.055 468.522C441.028 468.349 441.144 468.188 441.316 468.16C442.876 467.907 444.519 468.388 445.721 469.438C445.853 469.553 445.865 469.752 445.75 469.885C445.687 469.956 445.6 469.992 445.513 469.992Z" fill="white"/>
<path d="M443.335 472.42C443.26 472.42 443.187 472.394 443.127 472.342C442.065 471.412 440.608 470.992 439.237 471.213C439.055 471.242 438.903 471.123 438.875 470.951C438.848 470.779 438.963 470.617 439.136 470.589C440.696 470.338 442.338 470.814 443.543 471.866C443.674 471.981 443.687 472.181 443.572 472.313C443.509 472.384 443.422 472.42 443.335 472.42Z" fill="white"/>
<path d="M440.542 475.058C440.467 475.058 440.394 475.032 440.334 474.98C439.271 474.05 437.816 473.63 436.444 473.85C436.265 473.877 436.11 473.761 436.082 473.589C436.055 473.416 436.17 473.255 436.343 473.227C437.903 472.973 439.546 473.452 440.75 474.504C440.881 474.619 440.894 474.818 440.779 474.951C440.716 475.021 440.629 475.058 440.542 475.058Z" fill="white"/>
<path d="M523.688 417.496L537.156 427.151L546.498 418.603L533.946 405.926L523.688 417.496Z" fill="#BF5E60"/>
<path d="M533.245 427.58C532.738 427.17 532.719 426.389 533.155 425.909L535.734 423.074C536.367 422.342 538.341 422.756 539.299 422.848C543.434 423.248 543.696 420.989 543.082 416.829C544.05 415.406 545.816 416.375 546.3 416.624L557.098 422.028C558.007 422.47 558.397 423.577 557.968 424.498C557.892 424.663 557.792 424.814 557.672 424.948C554.271 428.876 552.662 430.737 548.429 435.627L535.484 450.584C531.955 454.662 527.16 451.854 528.236 449.836C533.121 440.8 535.552 433.475 535.399 429.188C535.395 428.605 534.176 428.334 533.245 427.583V427.58Z" fill="#263238"/>
<path d="M534.949 431.623C534.862 431.623 534.774 431.587 534.712 431.515C534.596 431.384 534.61 431.185 534.74 431.07C535.93 430.025 537.577 429.558 539.13 429.823C539.302 429.851 539.418 430.013 539.388 430.186C539.36 430.358 539.206 430.479 539.024 430.444C537.656 430.219 536.209 430.624 535.157 431.543C535.097 431.596 535.024 431.623 534.949 431.623Z" fill="white"/>
<path d="M534.344 434.865C534.257 434.865 534.168 434.83 534.106 434.758C533.99 434.627 534.004 434.427 534.134 434.312C535.327 433.267 536.971 432.799 538.525 433.066C538.696 433.093 538.812 433.256 538.782 433.429C538.753 433.601 538.602 433.721 538.419 433.686C537.042 433.459 535.601 433.867 534.551 434.786C534.49 434.839 534.417 434.864 534.342 434.864L534.344 434.865Z" fill="white"/>
<path d="M533.328 438.622C533.241 438.622 533.153 438.587 533.091 438.515C532.975 438.383 532.989 438.184 533.119 438.069C534.307 437.026 535.945 436.55 537.509 436.821C537.681 436.849 537.797 437.012 537.766 437.185C537.739 437.356 537.583 437.479 537.403 437.442C536.03 437.214 534.584 437.621 533.535 438.542C533.474 438.595 533.401 438.621 533.327 438.621L533.328 438.622Z" fill="white"/>
<path d="M454.586 446.36L436.389 453.383L410.335 383.812C409.42 381.37 408.919 378.797 408.851 376.191C408.283 354.473 405.789 250.827 405.789 250.827C440.307 219.436 448.06 274.258 447.833 275.009C445.556 282.217 439.049 377.878 439.049 377.878C439.049 377.878 454.982 428.917 454.587 446.362L454.586 446.36Z" fill="#263238"/>
<path d="M405.543 250.669L405.991 251.414C412.667 260.448 425.319 270.069 431.929 278.322L434.23 283.528C434.23 283.528 482.366 246.212 451.078 230.836C449.777 230.196 440.201 225.076 440.201 225.076C431.914 223.041 405.543 250.669 405.543 250.669Z" fill="#263238"/>
<path d="M477.475 283.65C480.094 299.95 488.233 342.05 492.843 357.889C492.843 357.889 507.026 366.005 515.046 375.085L540.641 411.122L529.222 421.373L482.54 387.226C471.986 379.279 467.71 373.39 463.57 365.639C453.44 346.713 448.44 322.607 442.393 303.559C439.594 294.726 428.837 266.271 429.755 257.121C430.977 244.737 431.415 224.712 446.461 231.521C460.855 235.75 469.391 238.44 477.476 283.65H477.475Z" fill="#263238"/>
<path d="M450.648 223.188C446.897 218.888 444.448 213.614 443.581 207.976C442.258 199.379 440.452 187.364 440.656 186.422L441.244 163.239C436.12 158.116 417.098 158.062 417.098 158.062L404.338 161.316C404.338 161.316 399.599 163.402 395.627 165.624C390.326 168.593 387.538 168.748 386.809 172.159C386.809 172.159 385.766 183.334 385.481 194.662C385.379 198.704 404.141 235.856 404.379 242.854L404.384 254.246C431.58 267.945 460.15 234.077 460.15 234.077L450.651 223.188H450.648Z" fill="#407BFF"/>
<path opacity="0.3" d="M441.707 195.447C441.707 195.447 429.785 184.682 430.389 179.645L440.527 185.091L441.206 191.912L441.707 195.447Z" fill="black"/>
<path d="M450.444 173.359C450.72 173.768 467.986 193.203 474.924 200.561C476.412 202.138 477.563 203.998 478.313 206.034L492.548 245.817L483.632 248.484L463.169 210.004L437.449 188.245L450.444 173.359Z" fill="#BF5E60"/>
<path d="M483.299 245.294C483.299 245.294 480.918 248.015 481.15 250.996C481.384 253.977 480.777 256.419 481.102 258.623C481.428 260.828 483.039 258.288 483.624 256.763C484.207 255.239 484.884 253.517 485.958 254.141C487.032 254.764 492.378 264.013 493.966 264.708C495.553 265.403 495.157 263.636 495.157 263.636C495.157 263.636 496.516 265.847 497.539 265.548C497.804 265.47 498.296 264.859 497.834 263.753C496.796 261.269 494.349 256.164 494.349 256.164C494.483 256.459 497.954 262.543 498.592 263.388C499.427 264.491 500.383 264.584 501.005 264.079C501.892 263.361 497.848 255.67 497.905 255.227C497.905 255.227 500.085 259.733 501.556 259.806C503.027 259.879 501.809 256.969 500.248 254.607C498.817 252.441 496.576 247.817 494.907 245.757C492.851 243.218 490.9 241.975 487.935 242.746C484.969 243.517 483.298 245.293 483.298 245.293L483.299 245.294Z" fill="#BF5E60"/>
<path d="M437.969 161.497C443.752 161.868 454.249 176.327 454.249 176.327L440.658 191.688C440.658 191.688 427.91 180.558 427.69 173.11C427.522 166.815 430.624 161.014 437.969 161.497Z" fill="#407BFF"/>
<path d="M396.732 165.558C396.732 165.558 376.564 158.078 376.893 158.31C377.223 158.542 368.773 177.369 368.773 177.369L388.446 190.651L396.732 165.558Z" fill="#407BFF"/>
<path d="M457.743 144.142C463.928 140.802 467.343 133.028 465.618 126.214C462.02 127.805 458.384 129.409 454.524 130.171C450.663 130.934 446.504 130.792 442.995 129.009C440.354 127.666 438.248 125.494 436.105 123.447C433.962 121.4 431.641 119.39 428.814 118.504C425.986 117.619 422.521 118.137 420.696 120.472L416.738 126.722C419.327 126.128 422.045 127.684 423.538 129.881C425.031 132.078 425.529 134.79 425.82 137.432C426.109 140.072 426.232 142.767 427.102 145.277C428.215 148.489 430.498 151.195 433.158 153.31C439.064 158.005 447.14 159.966 454.468 158.176C461.798 156.388 468.157 150.778 470.541 143.62C466.342 144.498 461.999 144.675 457.742 144.143L457.743 144.142Z" fill="#263238"/>
<path d="M399.011 114.815C399.011 114.815 389.526 131.908 389.077 137.225C385.446 140.317 382.865 134.049 383.001 125.648C383.112 118.771 386.699 111.35 392.642 108.679C400.99 104.924 399.012 114.816 399.012 114.816L399.011 114.815Z" fill="#263238"/>
<path d="M398.567 173.366C398.567 173.366 396.013 165.488 398.345 164.182C399.934 162.595 402.002 160.744 401.701 158.435C401.491 156.659 400.918 154.814 400.236 153.017L402.606 150.44L414.935 138.867C414.347 146.872 410.979 153.495 417.087 158.074" fill="#BF5E60"/>
<path opacity="0.2" d="M401.77 159.115C405.111 157.292 408.823 154.053 408.533 150.189C408.4 148.562 408.106 147.014 407.753 146.016L400.789 154.572C401.283 156.009 401.448 156.955 401.77 159.115Z" fill="black"/>
<path d="M418.772 126.107C417.21 138.288 416.806 143.463 410.266 149.642C400.43 158.937 385.952 155.166 383.88 142.96C382.014 131.974 384.884 113.9 397.068 109.199C409.072 104.567 420.336 113.925 418.772 126.106V126.107Z" fill="#BF5E60"/>
<path d="M402.199 130.398C402.189 131.545 401.532 132.518 400.728 132.572C399.925 132.627 399.283 131.742 399.293 130.596C399.303 129.449 399.962 128.476 400.763 128.42C401.566 128.366 402.208 129.251 402.198 130.398H402.199Z" fill="#263238"/>
<path d="M390.568 129.505C390.622 130.615 390.022 131.598 389.225 131.7C388.43 131.802 387.741 130.984 387.687 129.875C387.633 128.766 388.233 127.783 389.03 127.681C389.825 127.578 390.514 128.395 390.568 129.505Z" fill="#263238"/>
<path d="M405.447 126.465C405.291 126.475 405.136 126.422 405.02 126.305C403.217 124.476 401.071 124.99 401.046 124.996C400.728 125.073 400.418 124.881 400.36 124.557C400.305 124.234 400.519 123.907 400.841 123.825C400.953 123.797 403.648 123.15 405.884 125.421C406.106 125.647 406.094 126.03 405.855 126.274C405.74 126.392 405.593 126.456 405.446 126.466L405.447 126.465Z" fill="#263238"/>
<path d="M386.509 123.96C386.368 123.913 386.247 123.816 386.18 123.679C386.04 123.394 386.177 123.041 386.484 122.894C389.568 121.406 391.972 122.696 392.073 122.754C392.359 122.911 392.443 123.266 392.261 123.546C392.081 123.826 391.702 123.925 391.417 123.77C391.324 123.718 389.443 122.744 386.991 123.927C386.832 124.004 386.659 124.012 386.509 123.963V123.96Z" fill="#263238"/>
<path d="M387.516 112.826C390.101 107.451 400.634 102.457 412.746 107.647C430.811 113.765 422.15 143.066 416.735 137.272C415.262 135.696 414.02 134.134 412.975 132.629C406.69 123.59 397.913 116.574 387.556 112.841L387.517 112.827L387.516 112.826Z" fill="#263238"/>
<path d="M422.109 136.2C420.574 138.655 418.171 140.143 416.001 140.604C412.737 141.299 411.254 136.036 412.476 132.836C413.576 129.954 416.825 128.138 419.95 128.888C423.029 129.628 423.863 133.393 422.109 136.2Z" fill="#BF5E60"/>
<path d="M394.05 128.559C394.05 128.559 391.971 133.064 389.711 135.838C389.316 136.322 389.523 137.058 390.101 137.295C391.59 137.906 393.375 137.467 393.375 137.467L394.049 128.559H394.05Z" fill="#A74145"/>
<path d="M401.002 128.382L398.168 127.852C398.168 127.852 399.8 129.871 401.002 128.382Z" fill="#263238"/>
<path d="M389.439 127.697L386.578 127.336C387.97 128.863 389.081 128.199 389.439 127.697Z" fill="#263238"/>
<path opacity="0.2" d="M416.733 137.589C416.591 137.589 416.461 137.491 416.427 137.346C416.386 137.176 416.491 137.005 416.661 136.966C418.413 136.549 419.201 135.653 419.553 134.974C419.941 134.228 419.914 133.548 419.772 133.192C419.486 132.474 418.573 131.901 417.728 132.226C417.566 132.286 417.382 132.207 417.32 132.045C417.257 131.882 417.339 131.699 417.502 131.637C418.71 131.176 419.956 131.944 420.36 132.958C420.615 133.599 420.521 134.483 420.115 135.264C419.702 136.059 418.792 137.106 416.809 137.578C416.784 137.585 416.76 137.587 416.736 137.587L416.733 137.589Z" fill="black"/>
<path d="M392.25 141.456C393.167 142.804 394.292 145.43 394.292 145.43C394.548 145.371 394.804 145.313 395.057 145.24C398.512 144.353 399.822 142.799 400.226 141.347C400.444 140.552 400.381 139.778 400.25 139.17C400.106 138.463 399.842 137.992 399.842 137.992C398.291 139.557 395.134 140.631 393.424 141.136C392.709 141.354 392.25 141.456 392.25 141.456Z" fill="#263238"/>
<path d="M393.426 141.136L394.058 142.292C397.31 141.449 399.487 140.418 400.253 139.17C400.109 138.463 399.846 137.992 399.846 137.992C398.295 139.557 395.137 140.631 393.427 141.136H393.426Z" fill="white"/>
<path d="M395.062 145.245C398.518 144.358 399.828 142.804 400.232 141.352C399.066 141.699 397.699 142.248 396.591 143.097C395.74 143.742 395.3 144.515 395.062 145.245Z" fill="#FB504E"/>
<path d="M167.821 181.798C167.821 181.798 149.22 211.251 145.76 226.142C143.883 234.223 154.392 271.332 154.392 271.332L164.974 269.864C164.974 269.864 159.398 232.011 161.387 228.357C167.371 217.363 185.962 193.638 185.675 192.928C185.389 192.217 167.822 181.797 167.822 181.797L167.821 181.798Z" fill="#FDAC6D"/>
<path d="M154.772 282.125C155.954 284.875 157.583 288.441 158.992 288.787C160.4 289.132 160.798 288.014 161.694 288.002C162.59 287.991 163.731 289.012 165.309 287.143C165.309 287.143 168.495 288.421 169.437 286.16C171.675 285.943 172.283 284.614 171.883 282.222C171.76 281.653 170.383 278.493 170.316 277.902C170.533 278.024 172.633 281.423 172.945 281.522C175.575 282.36 176.891 281.977 176.916 280.742C176.929 280.105 176.54 279.527 175.982 279.22C174.615 278.469 174.136 272.941 172.538 272.003C171.198 271.215 166.576 268.856 164.662 268.363C162.748 267.87 154.947 270.009 154.947 270.009C154.947 270.009 153.589 279.375 154.772 282.125Z" fill="#FDAC6D"/>
<path d="M232.634 164.107C232.634 164.107 259.665 156.773 266.702 151.709C273.739 146.648 286.312 112.145 286.312 112.145L295.656 112.296C295.656 112.296 288.591 151.856 282.216 160.152C275.84 168.449 243.778 183.783 243.778 183.783L232.633 164.107H232.634Z" fill="#FDAC6D"/>
<path d="M287.15 113.471C287.15 113.471 283.696 110.942 283.195 107.437C282.695 103.933 281.362 101.267 281.171 98.6361C280.979 96.0049 283.496 98.5226 284.564 100.134C285.632 101.744 286.86 103.559 287.94 102.561C289.02 101.563 292.809 89.4967 294.463 88.2827C296.118 87.0686 296.115 89.2128 296.115 89.2128C296.115 89.2128 297.115 86.3064 298.373 86.3884C298.7 86.4099 299.425 86.9904 299.178 88.3862C298.62 91.526 297.112 98.0544 297.112 98.0544C297.192 97.6783 299.63 89.7517 300.15 88.6121C300.83 87.1229 301.91 86.767 302.76 87.1898C303.97 87.7905 301.282 97.7212 301.461 98.2184C301.461 98.2184 302.818 92.4498 304.499 91.9854C306.18 91.521 305.523 95.1984 304.329 98.332C303.235 101.204 301.84 107.126 300.443 109.937C298.722 113.402 296.789 115.342 293.163 115.218C289.538 115.093 287.15 113.471 287.15 113.471Z" fill="#FDAC6D"/>
<path d="M220.09 493.135L232.301 495.048L242.589 469.185L226.56 464.062L220.09 493.135Z" fill="#FDAC6D"/>
<path d="M233.807 492.968L229.947 491.852C229.073 491.6 228.137 491.808 227.417 492.363C224.313 494.76 222.971 493.127 221.378 489.569C219.89 488.945 218.965 490.592 218.702 491.03L212.782 500.693C212.279 501.497 212.521 502.558 213.325 503.061C213.467 503.151 213.623 503.219 213.785 503.263C218.472 504.619 220.691 505.26 226.525 506.946L244.369 512.104C249.232 513.51 251.658 508.899 249.785 507.866C241.351 503.271 235.738 498.774 233.71 495.349C233.326 494.741 233.957 494.552 233.807 492.968Z" fill="#263238"/>
<path d="M241.319 498.376C241.81 498.202 242.189 497.804 242.339 497.306C242.451 497.047 242.404 496.747 242.22 496.534C241.258 495.328 235.78 496.189 235.162 496.296C235.095 496.3 235.034 496.334 234.995 496.388C234.923 496.488 234.946 496.628 235.046 496.7C236.151 497.323 237.317 497.831 238.528 498.212C239.417 498.563 240.395 498.621 241.32 498.377L241.319 498.376ZM241.812 496.812C241.893 496.902 241.91 497.032 241.855 497.139C241.73 497.495 241.459 497.779 241.111 497.92C239.778 498.422 237.234 497.304 235.886 496.628C238.145 496.325 241.279 496.152 241.812 496.812Z" fill="#407BFF"/>
<path d="M235.196 496.793C236.821 496.607 240.546 495.103 240.745 493.796C240.797 493.524 240.699 493.155 240.069 492.877C237.51 491.809 235.003 496.233 234.944 496.435C234.895 496.508 234.893 496.605 234.941 496.679C234.987 496.708 235.039 496.724 235.093 496.724L235.195 496.794L235.196 496.793ZM239.868 493.242C240.345 493.433 240.295 493.61 240.276 493.673C240.193 494.482 237.415 495.822 235.599 496.199C236.248 495.184 238.018 492.693 239.695 493.177L239.868 493.24V493.242Z" fill="#407BFF"/>
<path d="M231.738 498.198C231.651 498.198 231.565 498.163 231.502 498.092C231.386 497.962 231.397 497.763 231.528 497.646C232.644 496.652 234.191 496.184 235.672 496.406C235.844 496.431 235.963 496.59 235.938 496.763C235.911 496.935 235.747 497.053 235.579 497.029C234.28 496.84 232.924 497.248 231.946 498.117C231.887 498.171 231.811 498.197 231.737 498.197L231.738 498.198Z" fill="#407BFF"/>
<path d="M233.613 500.697C233.526 500.697 233.44 500.661 233.377 500.591C233.261 500.461 233.272 500.261 233.402 500.145C234.519 499.151 236.069 498.686 237.547 498.905C237.718 498.93 237.838 499.089 237.813 499.262C237.786 499.436 237.631 499.558 237.455 499.528C236.164 499.337 234.802 499.745 233.823 500.616C233.762 500.67 233.687 500.695 233.612 500.695L233.613 500.697Z" fill="#407BFF"/>
<path d="M236.164 503.08C236.077 503.08 235.991 503.045 235.928 502.974C235.812 502.844 235.823 502.645 235.953 502.529C237.069 501.536 238.617 501.067 240.097 501.288C240.27 501.313 240.389 501.472 240.364 501.645C240.337 501.817 240.169 501.936 240.005 501.912C238.705 501.722 237.35 502.129 236.373 502.999C236.313 503.054 236.238 503.079 236.163 503.079L236.164 503.08Z" fill="#407BFF"/>
<path d="M110.703 451.028L122.175 455.632L138.001 432.735L123.53 424.148L110.703 451.028Z" fill="#FDAC6D"/>
<path d="M124.112 453.94L120.601 451.987C119.806 451.545 118.848 451.538 118.022 451.917C114.458 453.557 113.518 451.665 112.762 447.84C111.452 446.898 110.182 448.296 109.828 448.664L101.891 456.752C101.22 457.422 101.218 458.511 101.89 459.183C102.01 459.303 102.145 459.404 102.293 459.483C106.558 461.854 108.576 462.978 113.882 465.929L130.114 474.958C134.539 477.419 137.936 473.47 136.343 472.044C129.155 465.673 124.693 460.033 123.485 456.24C123.248 455.561 123.904 455.517 124.112 453.94Z" fill="#263238"/>
<path d="M130.221 460.896C130.739 460.836 131.197 460.534 131.456 460.081C131.622 459.854 131.645 459.552 131.514 459.302C130.847 457.91 125.315 457.52 124.689 457.487C124.623 457.476 124.556 457.496 124.506 457.539C124.414 457.62 124.404 457.761 124.484 457.853C125.421 458.709 126.444 459.464 127.538 460.107C128.326 460.649 129.266 460.925 130.223 460.895L130.221 460.896ZM131.053 459.483C131.111 459.587 131.1 459.719 131.021 459.811C130.821 460.129 130.493 460.346 130.12 460.405C128.708 460.596 126.48 458.936 125.319 457.975C127.588 458.187 130.682 458.722 131.053 459.484V459.483Z" fill="#407BFF"/>
<path d="M124.609 457.981C126.233 458.164 130.201 457.535 130.689 456.306C130.8 456.052 130.788 455.669 130.236 455.258C127.982 453.644 124.547 457.392 124.445 457.575C124.381 457.636 124.358 457.729 124.388 457.814C124.425 457.851 124.473 457.878 124.526 457.891L124.61 457.983L124.609 457.981ZM129.959 455.569C130.38 455.863 130.291 456.024 130.259 456.081C129.997 456.851 126.989 457.535 125.135 457.494C125.995 456.651 128.28 454.621 129.805 455.469L129.959 455.569Z" fill="#407BFF"/>
<path d="M120.991 458.583C120.88 458.583 120.771 458.524 120.714 458.419C120.631 458.266 120.687 458.075 120.839 457.99C122.151 457.272 123.763 457.168 125.155 457.712C125.318 457.775 125.398 457.957 125.335 458.12C125.27 458.282 125.086 458.361 124.926 458.299C123.707 457.826 122.291 457.914 121.141 458.544C121.093 458.571 121.041 458.582 120.99 458.582L120.991 458.583Z" fill="#407BFF"/>
<path d="M122.26 461.442C122.149 461.442 122.041 461.383 121.984 461.278C121.901 461.126 121.956 460.934 122.109 460.85C123.42 460.132 125.034 460.028 126.426 460.57C126.589 460.633 126.669 460.815 126.605 460.978C126.542 461.139 126.359 461.219 126.197 461.157C124.975 460.684 123.56 460.771 122.412 461.403C122.364 461.43 122.312 461.441 122.26 461.441V461.442Z" fill="#407BFF"/>
<path d="M124.206 464.329C124.095 464.329 123.986 464.269 123.929 464.165C123.846 464.012 123.902 463.82 124.054 463.736C125.365 463.018 126.978 462.915 128.37 463.458C128.533 463.521 128.613 463.703 128.55 463.866C128.486 464.027 128.302 464.107 128.141 464.045C126.922 463.572 125.506 463.66 124.356 464.29C124.308 464.316 124.256 464.327 124.204 464.327L124.206 464.329Z" fill="#407BFF"/>
<path d="M111.461 438.843L132.352 451.937C132.352 451.937 180.24 387.228 189.17 370.628C198.099 354.028 216.211 310.703 216.211 310.703L216.177 310.788C216.603 312.042 218.309 325.094 222.275 338.297C227.453 355.567 232.911 374.185 233.97 379.013C237.049 393.228 218.958 481.849 218.958 481.849L240.943 488.025C240.943 488.025 267.228 398.643 268.451 386.576C271.303 358.426 249.549 288.487 248.938 284.907C248.148 280.333 247.263 266.466 247.263 266.466L189.718 251.383C189.718 251.383 185.538 259.27 182.73 266.504C172.211 293.651 163.819 343.162 160.828 353.365C145.243 372.728 111.461 438.843 111.461 438.843Z" fill="#263238"/>
<path d="M225.946 186.433C234.45 192.429 265.392 182.607 265.392 182.607L261.14 155.266C261.14 155.266 248.483 158.257 235.203 162.154C226.174 164.761 216.607 179.914 225.947 186.433H225.946Z" fill="#407BFF"/>
<path d="M178.139 165.17C180.275 177.346 177.643 189.618 177.924 201.975C178.165 210.621 178.163 219.16 177.852 226.614C177.158 244.049 174.712 266.667 174.812 271.202C197.175 263.459 243.076 297.546 260.022 278.353C244.564 223.139 240.598 160.609 240.598 160.609C234.269 160.609 230.684 162.872 225.986 162.311C224.994 162.197 223.987 162.097 222.953 162.013C214.549 161.633 206.129 161.738 197.738 162.324C196.151 162.424 194.535 162.565 192.962 162.721C184.911 163.501 178.141 165.169 178.141 165.169L178.139 165.17Z" fill="#407BFF"/>
<path d="M179.076 164.952C168.531 166.455 147.359 202.511 147.359 202.511L174.744 217.805C174.744 217.805 184.071 198.606 190.888 186.487C198.301 173.292 191.832 163.139 179.076 164.952Z" fill="#407BFF"/>
<path d="M231.233 112.914L232.506 113.662C233.998 113.693 235.4 114.82 235.75 116.271C236.099 117.722 235.366 119.363 234.052 120.071C233.854 120.177 233.626 120.287 233.556 120.5C233.444 120.842 233.802 121.133 234.075 121.368C235.415 122.527 235.249 124.83 234.045 126.128C232.839 127.427 230.925 127.846 229.158 127.706C228.698 122.722 231.662 117.9 231.233 112.914Z" fill="#263238"/>
<path d="M193.283 126.939C191.386 127.03 189.489 125.86 188.722 124.122C188.51 123.642 188.378 123.109 188.465 122.592C188.701 121.189 190.31 120.547 191.679 120.16C190.149 119.786 189.125 118.265 188.831 116.719C188.697 116.013 188.685 115.268 188.915 114.585C189.301 113.437 190.33 112.595 191.453 112.142C192.576 111.689 193.803 111.569 195.009 111.453L201.96 133.505C200.408 133.854 198.797 134.066 197.229 133.798C195.662 133.531 194.131 132.733 193.256 131.404C192.382 130.075 192.297 128.186 193.283 126.939Z" fill="#263238"/>
<path d="M220.257 161.912C217.733 158.321 218.671 153.214 219.29 151.455C219.6 150.47 219.976 149.507 220.417 148.575L202.133 132.727C203.284 140.979 206.969 156.678 200.555 162.149C200.555 162.149 213.989 171.537 217.315 168.326C220.642 165.117 220.258 161.91 220.258 161.91L220.257 161.912Z" fill="#FDAC6D"/>
<path opacity="0.2" d="M205.406 141.121C204.312 150.751 213.962 155.417 218.841 156.954C218.519 155.118 218.676 153.229 219.294 151.471L205.405 141.121H205.406Z" fill="black"/>
<path d="M199.001 125.531C201.259 136.909 202.295 143.372 209.049 148.439C219.208 156.061 232.781 149.105 234.071 137.259C235.232 126.595 231.346 109.779 219.17 106.809C207.175 103.883 196.743 114.154 199.001 125.532V125.531Z" fill="#FDAC6D"/>
<path d="M195.66 111.93C196.436 105.4 212.735 103.237 217.72 105.882C218.465 106.277 209.436 112.232 209.994 111.948L205.65 114.061C204.93 114 203.66 114.972 203.23 117.178C203.23 117.178 206.096 134.7 201.647 140.449C197.264 139.026 196.092 132.085 194.238 128.102C191.476 122.167 187.933 113.407 195.659 111.93H195.66Z" fill="#263238"/>
<path d="M195.614 135.694C196.952 138.526 199.518 140.477 202.011 141.306C205.762 142.554 206.576 138.642 205.759 135.07C205.025 131.856 203.518 128.018 199.645 128.317C195.83 128.611 194.085 132.455 195.615 135.694H195.614Z" fill="#FDAC6D"/>
<path d="M216.709 125.793C216.865 126.967 217.633 127.83 218.423 127.722C219.213 127.613 219.726 126.572 219.569 125.398C219.412 124.225 218.645 123.362 217.855 123.47C217.065 123.579 216.553 124.62 216.709 125.793Z" fill="#263238"/>
<path d="M228.223 125.418C228.38 126.593 229.147 127.455 229.937 127.347C230.727 127.237 231.241 126.197 231.084 125.023C230.928 123.85 230.161 122.987 229.371 123.095C228.581 123.205 228.067 124.245 228.223 125.418Z" fill="#263238"/>
<path d="M224.281 125.223C224.281 125.223 228.885 130.565 230.428 132.782C228.944 134.474 225.956 134.165 225.956 134.165L224.281 125.223Z" fill="#ED8640"/>
<path d="M212.647 121.517C212.839 121.566 213.054 121.517 213.204 121.367C214.998 119.598 217.064 119.964 217.084 119.967C217.394 120.026 217.697 119.83 217.76 119.531C217.823 119.232 217.623 118.941 217.315 118.882C217.207 118.861 214.619 118.401 212.392 120.598C212.17 120.818 212.172 121.168 212.395 121.38C212.467 121.449 212.554 121.495 212.646 121.517H212.647Z" fill="#263238"/>
<path opacity="0.2" d="M203.74 135.231C203.599 135.231 203.471 135.136 203.435 134.994C203.2 134.072 202.72 133.224 202.045 132.54C201.607 132.096 200.903 131.548 200.028 131.455C199.256 131.374 198.47 131.735 198.17 132.317C198.09 132.473 197.899 132.533 197.745 132.453C197.59 132.374 197.53 132.183 197.609 132.029C198.029 131.21 199.063 130.714 200.095 130.829C201.154 130.943 201.985 131.582 202.493 132.099C203.247 132.862 203.783 133.81 204.044 134.84C204.087 135.009 203.985 135.18 203.816 135.223C203.789 135.23 203.763 135.233 203.737 135.233L203.74 135.231Z" fill="black"/>
<path d="M232.787 119.753C232.889 119.718 232.982 119.654 233.052 119.563C233.241 119.317 233.193 118.968 232.943 118.784C230.437 116.943 227.972 117.817 227.857 117.843C227.562 117.949 227.408 118.269 227.514 118.557C227.619 118.843 227.942 118.991 228.236 118.889C228.337 118.849 230.245 118.199 232.255 119.676C232.413 119.793 232.612 119.814 232.787 119.753Z" fill="#263238"/>
<path d="M191.834 106.722C192.435 103.961 195.915 102.974 198.67 103.217C198.166 99.9821 202.302 97.6171 205.055 97.3975C207.922 97.1678 209.076 98.1635 209.076 98.1635C208.86 98.2329 209.753 96.4573 210.35 95.7253C212.552 93.0246 216.388 91.8548 219.679 92.8795C222.971 93.9043 225.528 97.0643 225.899 100.566C227.469 98.6128 230.652 98.3276 232.536 99.972C234.42 101.616 234.651 104.88 233.017 106.778C235.128 106.671 237.126 108.622 237.122 110.786C237.117 112.95 235.109 114.885 232.999 114.758C233.149 117.176 233.23 120.207 233.38 122.626L229.064 114.153C227.295 113.753 226.885 113.035 226.333 111.267C225.343 113.675 223.36 113.709 220.813 113.896C218.267 114.082 215.667 112.702 214.343 110.463C213.301 112.979 211.017 115.055 208.355 115.288C205.693 115.52 202.872 113.536 202.572 110.818C201.27 113.311 198.06 114.553 195.467 113.565C192.875 112.577 191.233 109.484 191.835 106.722H191.834Z" fill="#263238"/>
<path d="M225.519 138.058C224.538 139.322 223.651 140.655 222.865 142.047C222.602 141.951 222.331 141.859 222.072 141.751C218.494 140.388 217.279 138.579 217.037 136.978C216.932 136.193 217.013 135.394 217.273 134.645C217.409 134.22 217.605 133.816 217.852 133.445C219.318 135.303 222.545 136.827 224.31 137.57C225.084 137.853 225.52 138.059 225.52 138.059L225.519 138.058Z" fill="#263238"/>
<path d="M224.353 137.55L223.537 138.706C220.179 137.417 217.987 136.07 217.316 134.626C217.453 134.201 217.648 133.797 217.896 133.426C219.37 135.3 222.589 136.808 224.353 137.55Z" fill="white"/>
<path d="M222.117 141.734C218.54 140.371 217.324 138.562 217.082 136.961C218.432 137.504 219.675 138.281 220.754 139.257C221.456 139.92 221.932 140.786 222.117 141.734Z" fill="#D7504D"/>
<path d="M371.025 203.125C372.566 204.772 373.818 206.247 375.136 207.826C376.453 209.405 377.7 210.965 378.903 212.579C381.351 215.768 383.666 219.062 385.922 222.396C388.179 225.73 390.316 229.142 392.319 232.69L394.023 235.497C394.659 236.554 395.168 237.633 395.704 238.7C396.703 240.815 397.555 242.997 398.251 245.229C399.592 249.435 400.506 253.768 400.979 258.157C401.459 262.37 401.626 266.611 401.479 270.848C401.375 274.982 401.022 279.105 400.421 283.196C399.851 287.297 399.018 291.358 397.926 295.351L387.532 293.622C387.545 290.088 387.491 286.224 387.284 282.549C387.077 278.875 386.744 275.165 386.278 271.562C385.503 264.664 383.773 257.907 381.137 251.486C380.503 250.063 379.789 248.677 378.998 247.335C378.592 246.703 378.218 246.043 377.796 245.465C377.558 245.153 377.415 244.919 377.123 244.548L376.264 243.421C373.931 240.451 371.626 237.484 369.251 234.512C366.876 231.54 364.529 228.571 362.16 225.727L355.184 217.176L371.029 203.125H371.025Z" fill="#FFBBB5"/>
<path d="M342.516 210.548C340.249 218.641 364.565 234.959 364.565 234.959L385.409 219.085C380.764 211.571 375.457 204.486 369.554 197.915C359.81 187.066 346.199 197.437 342.516 210.548Z" fill="#263238"/>
<path opacity="0.2" d="M342.516 210.548C340.249 218.641 364.565 234.959 364.565 234.959L385.409 219.085C380.764 211.571 375.457 204.486 369.554 197.915C359.81 187.066 346.199 197.437 342.516 210.548Z" fill="white"/>
<path opacity="0.2" d="M359.516 220.113C356.031 217.946 355.229 222.401 355.464 228.135C360.269 232.08 364.552 234.959 364.552 234.959L367.206 232.934C365.503 227.601 363.017 222.281 359.517 220.113H359.516Z" fill="black"/>
<path d="M390.467 290.848C390.467 290.848 386.241 291.529 384.2 294.422C382.159 297.315 379.76 299.083 378.392 301.338C377.024 303.595 380.411 302.497 382.096 301.549C383.78 300.601 385.699 299.544 386.206 300.923C386.714 302.304 384.597 314.772 385.519 316.606C386.44 318.44 387.413 316.529 387.413 316.529C387.413 316.529 386.98 319.572 388.139 320.071C388.439 320.201 389.35 320.014 389.764 318.659C390.697 315.61 392.323 309.11 392.323 309.11C392.222 309.481 390.787 317.648 390.732 318.899C390.66 320.534 391.46 321.342 392.409 321.353C393.761 321.37 395.885 311.303 396.272 310.942C396.272 310.942 394.855 316.695 396.14 317.874C397.424 319.053 398.515 315.479 398.877 312.146C399.209 309.091 400.66 303.182 400.697 300.043C400.742 296.175 399.903 293.568 396.618 292.03C393.333 290.491 390.467 290.848 390.467 290.848Z" fill="#FFBBB5"/>
<path d="M288.836 326.703C288.836 326.703 315.184 329.018 344.584 325.295C373.984 321.572 374.286 316.943 374.286 316.943L365.5 306.8C365.5 306.8 345.511 301.906 343.927 301.623C342.345 301.34 288.836 326.704 288.836 326.704V326.703Z" fill="#263238"/>
<path d="M404.125 523.622L392.056 526.289L380.184 501.115L395.863 495.008L404.125 523.622Z" fill="#FFBBB5"/>
<path d="M390.426 524.307L394.209 522.954C395.065 522.648 396.013 522.798 396.765 523.308C400.012 525.507 401.249 523.795 402.62 520.144C404.067 519.428 405.091 521.015 405.382 521.436L411.89 530.713C412.442 531.484 412.266 532.558 411.495 533.111C411.357 533.209 411.207 533.286 411.047 533.341C406.452 534.984 404.279 535.761 398.561 537.807L381.072 544.062C376.304 545.767 373.598 541.316 375.403 540.169C383.535 535.059 388.859 530.223 390.67 526.678C391.016 526.047 390.375 525.897 390.427 524.307H390.426Z" fill="#263238"/>
<path d="M386.039 529.824C387.223 529.369 388.356 528.791 389.42 528.099C389.514 528.021 389.528 527.881 389.45 527.785C389.407 527.733 389.344 527.704 389.278 527.703C388.655 527.633 383.134 527.115 382.248 528.379C382.077 528.603 382.05 528.906 382.177 529.157C382.359 529.645 382.76 530.019 383.261 530.163C384.199 530.348 385.172 530.229 386.037 529.824H386.039ZM388.578 528.08C387.276 528.839 384.805 530.112 383.443 529.694C383.086 529.574 382.798 529.308 382.65 528.961C382.588 528.858 382.597 528.728 382.672 528.633C383.163 527.941 386.303 527.919 388.577 528.081L388.578 528.08Z" fill="#407BFF"/>
<path d="M389.376 528.133C389.429 528.131 389.481 528.112 389.524 528.08C389.567 528.002 389.56 527.906 389.506 527.836C389.435 527.637 386.659 523.379 384.17 524.604C383.559 524.92 383.484 525.295 383.552 525.563C383.833 526.855 387.645 528.125 389.276 528.209L389.375 528.132L389.376 528.133ZM384.563 524.881C386.206 524.293 388.128 526.671 388.838 527.642C387.003 527.38 384.147 526.214 384.014 525.411C383.992 525.349 383.93 525.176 384.394 524.954L384.561 524.88L384.563 524.881Z" fill="#407BFF"/>
<path d="M392.799 529.401C392.731 529.401 392.662 529.378 392.604 529.333C391.575 528.524 390.189 528.204 388.912 528.472C388.734 528.511 388.574 528.397 388.538 528.23C388.502 528.059 388.611 527.891 388.781 527.856C390.241 527.542 391.816 527.912 392.993 528.837C393.129 528.944 393.155 529.142 393.046 529.28C392.984 529.358 392.892 529.401 392.799 529.401Z" fill="#407BFF"/>
<path d="M391.077 532.009C391.009 532.009 390.941 531.987 390.883 531.941C389.852 531.132 388.466 530.812 387.189 531.081C387.01 531.122 386.851 531.006 386.816 530.838C386.779 530.667 386.889 530.5 387.058 530.465C388.522 530.152 390.094 530.521 391.272 531.445C391.408 531.553 391.433 531.751 391.325 531.888C391.263 531.966 391.171 532.009 391.077 532.009Z" fill="#407BFF"/>
<path d="M388.685 534.545C388.617 534.545 388.549 534.522 388.491 534.477C387.461 533.668 386.076 533.348 384.799 533.616C384.621 533.656 384.46 533.541 384.425 533.374C384.388 533.203 384.498 533.035 384.667 533C386.127 532.687 387.701 533.056 388.88 533.981C389.016 534.088 389.041 534.286 388.933 534.424C388.871 534.502 388.779 534.545 388.685 534.545Z" fill="#407BFF"/>
<path d="M331.058 540.986L318.699 541.135L312.211 514.068L328.806 511.289L331.058 540.986Z" fill="#FFBBB5"/>
<path d="M317.501 538.859L321.481 538.306C322.383 538.181 323.279 538.52 323.911 539.173C326.642 541.988 328.202 540.565 330.289 537.271C331.85 536.866 332.53 538.628 332.728 539.1L337.207 549.509C337.591 550.377 337.198 551.391 336.331 551.775C336.177 551.843 336.013 551.889 335.846 551.909C331.012 552.58 328.725 552.898 322.711 553.734L304.313 556.289C299.298 556.986 297.556 552.077 299.558 551.322C308.562 547.979 314.76 544.332 317.256 541.23C317.723 540.682 317.128 540.404 317.502 538.859H317.501Z" fill="#263238"/>
<path d="M312.082 543.372C313.334 543.168 314.562 542.834 315.745 542.374C315.854 542.317 315.896 542.182 315.839 542.073C315.809 542.013 315.752 541.972 315.688 541.958C315.091 541.762 309.792 540.128 308.667 541.185C308.454 541.37 308.366 541.66 308.44 541.933C308.518 542.447 308.835 542.895 309.296 543.138C310.175 543.511 311.152 543.593 312.083 543.372H312.082ZM314.923 542.184C313.493 542.661 310.815 543.403 309.567 542.716C309.241 542.526 309.014 542.206 308.941 541.837C308.902 541.723 308.937 541.597 309.029 541.52C309.65 540.943 312.73 541.561 314.922 542.185L314.923 542.184Z" fill="#407BFF"/>
<path d="M315.689 542.394C315.742 542.402 315.796 542.394 315.844 542.373C315.902 542.306 315.915 542.21 315.877 542.13C315.848 541.922 313.998 537.187 311.314 537.877C310.651 538.062 310.501 538.414 310.512 538.69C310.524 540.013 313.997 542.033 315.577 542.45L315.689 542.394ZM311.641 538.228C313.368 537.988 314.766 540.708 315.262 541.803C313.52 541.171 310.963 539.447 310.996 538.636C310.987 538.57 310.962 538.388 311.461 538.266L311.641 538.228Z" fill="#407BFF"/>
<path d="M318.848 544.34C318.759 544.34 318.669 544.302 318.607 544.227C317.766 543.228 316.483 542.631 315.175 542.631H315.167C314.993 542.631 314.852 542.491 314.852 542.315C314.852 542.141 314.992 542 315.167 542H315.176C316.668 542 318.132 542.68 319.092 543.82C319.204 543.952 319.187 544.153 319.054 544.265C318.995 544.315 318.923 544.34 318.851 544.34H318.848Z" fill="#407BFF"/>
<path d="M316.633 546.542C316.544 546.542 316.454 546.504 316.392 546.429C315.551 545.43 314.27 544.834 312.965 544.834H312.952C312.778 544.834 312.637 544.694 312.637 544.52C312.637 544.341 312.783 544.203 312.965 544.203C314.455 544.203 315.915 544.882 316.876 546.022C316.988 546.154 316.97 546.355 316.838 546.467C316.779 546.516 316.707 546.542 316.635 546.542H316.633Z" fill="#407BFF"/>
<path d="M313.771 548.535C313.682 548.535 313.592 548.497 313.53 548.423C312.689 547.423 311.406 546.826 310.102 546.826H310.089C309.915 546.826 309.773 546.686 309.773 546.512C309.773 546.333 309.921 546.193 310.102 546.195C311.591 546.195 313.052 546.876 314.014 548.015C314.126 548.148 314.108 548.348 313.976 548.461C313.917 548.51 313.845 548.535 313.773 548.535H313.771Z" fill="#407BFF"/>
<path d="M339.637 162.902C338.347 171.277 337.352 186.581 343.402 191.887C339.067 196.571 333.384 202.004 323.518 202.76C313.651 203.516 315.101 196.613 317.562 192.959C326.75 190.362 326.223 183.504 324.338 177.097L339.637 162.902Z" fill="#FFBBB5"/>
<path d="M314.421 153.29C314.271 154.203 313.68 154.867 313.088 154.777C312.498 154.688 312.13 153.873 312.267 152.958C312.403 152.043 313.006 151.395 313.598 151.485C314.19 151.574 314.556 152.39 314.42 153.291L314.421 153.29Z" fill="#263238"/>
<path d="M314.046 154.165C312.537 156.773 310.675 159.158 308.512 161.253C309.617 162.338 311.146 162.879 312.688 162.734L314.046 154.165Z" fill="#E97A75"/>
<path d="M317.044 150.018C316.882 149.945 316.767 149.795 316.74 149.618C316.547 148.257 315.709 147.074 314.49 146.44C314.215 146.323 314.086 146.005 314.204 145.728C314.321 145.453 314.639 145.325 314.915 145.442C316.464 146.231 317.538 147.717 317.802 149.436C317.847 149.729 317.648 150.003 317.356 150.049C317.253 150.075 317.142 150.063 317.044 150.018Z" fill="#263238"/>
<path d="M345.513 155.761C342.703 166.705 341.615 173.246 334.939 177.885C324.885 184.82 312.197 177.129 311.677 165.573C311.206 155.169 315.868 139.033 327.555 136.647C335.892 134.944 344.031 140.322 345.734 148.658C346.215 151.011 346.139 153.444 345.512 155.761H345.513Z" fill="#FFBBB5"/>
<path d="M322.883 157.596C319.904 153.753 321.533 145.923 323.738 142.255C321.304 143.625 313.339 142.642 313.645 136.369C314.086 127.181 329.645 125.905 338.018 127.99C347.661 130.458 355.898 140.087 359.442 137.119C362.568 143.427 356.378 145.225 356.378 145.225C356.378 145.225 361.558 160.774 338.666 174.447C335.663 173.852 332.577 173.81 329.559 174.322C328.876 174.281 328.237 173.976 327.776 173.47C325.665 171.109 319.936 163.862 322.883 157.596Z" fill="#263238"/>
<path d="M355.562 144.838C355.562 144.838 359.674 145.947 361.239 143.352C360.616 147.15 358.28 147.048 355.562 144.838Z" fill="#263238"/>
<path d="M330.002 161.512C328.466 163.902 326.044 165.586 323.268 166.19C319.591 166.951 317.989 163.597 319.224 160.286C320.33 157.268 323.591 153.247 327.185 153.973C330.779 154.698 331.825 158.575 330.002 161.512Z" fill="#FFBBB5"/>
<path d="M322.695 294.277C322.695 294.277 335.931 387.914 343.366 420.354C351.5 455.999 380.786 517.14 380.786 517.14L402.599 510.122C402.599 510.122 384.037 461.105 377.47 426.101C373.031 402.257 369.407 353.099 369.196 326.961C369.03 306.316 361.907 293.211 361.907 293.211L322.695 294.276V294.277Z" fill="#407BFF"/>
<path opacity="0.2" d="M335.029 336.792C335.958 362.667 336.478 365.728 336.344 385.708C332.683 364.296 328.883 339.497 326.145 321.145L335.03 336.792H335.029Z" fill="black"/>
<path d="M310.967 530.497L331.232 529.387C331.232 529.387 327.677 456.656 327.153 421.207C326.988 410.424 328.188 395.258 330.004 378.963C332.285 358.42 333.495 350.212 336.502 324.259C338.641 305.753 340.656 293.8 340.656 293.8L292.836 293.562C292.836 293.562 294.082 384.926 296.68 419.553C299.417 455.507 310.965 530.497 310.965 530.497H310.967Z" fill="#407BFF"/>
<path d="M309.818 531.785L332.758 531.067L332.54 523.656L309.434 524.166L309.818 531.785Z" fill="#407BFF"/>
<path opacity="0.3" d="M309.818 531.785L332.758 531.067L332.54 523.656L309.434 524.166L309.818 531.785Z" fill="black"/>
<path d="M380.388 518.509L403.441 510.112L400.93 503.215L377.117 510.108L380.388 518.509Z" fill="#407BFF"/>
<path opacity="0.3" d="M380.388 518.509L403.441 510.112L400.93 503.215L377.117 510.108L380.388 518.509Z" fill="black"/>
<path opacity="0.2" d="M345.993 322.25L335.027 336.791C335.027 336.791 343.783 334.454 345.993 322.25Z" fill="black"/>
<path d="M365.225 199.474C357.649 242.69 374.448 307.977 374.29 316.939C359.421 295.516 307.164 326.23 288.84 326.7C297.531 250.529 302.49 194.188 302.49 194.188C302.49 194.188 306.336 193.183 311.595 192.297C313.243 192.019 315.031 191.764 316.889 191.541C317.904 191.413 318.96 191.316 320.016 191.218C328.636 190.821 337.27 190.913 345.88 191.495C347.508 191.586 349.177 191.68 350.784 191.897C352.39 192.114 353.732 192.231 355.114 192.408C357.242 192.697 359.212 193.005 360.885 193.284C363.779 193.774 365.726 196.519 365.235 199.414L365.225 199.474Z" fill="#263238"/>
<path opacity="0.2" d="M365.225 199.474C357.649 242.69 374.448 307.977 374.29 316.939C359.421 295.516 307.164 326.23 288.84 326.7C297.531 250.529 302.49 194.188 302.49 194.188C302.49 194.188 306.336 193.183 311.595 192.297C313.243 192.019 315.031 191.764 316.889 191.541C317.904 191.413 318.96 191.316 320.016 191.218C328.636 190.821 337.27 190.913 345.88 191.495C347.508 191.586 349.177 191.68 350.784 191.897C352.39 192.114 353.732 192.231 355.114 192.408C357.242 192.697 359.212 193.005 360.885 193.284C363.779 193.774 365.726 196.519 365.235 199.414L365.225 199.474Z" fill="white"/>
<path opacity="0.2" d="M300.959 213.555C300.623 215.764 300.318 218.175 300.031 220.771C304.072 220.599 309.012 219.852 311.208 217.646C313.891 214.843 306.221 213.89 300.959 213.555Z" fill="black"/>
<path d="M297.645 122.901C297.645 122.901 301.722 124.21 304.851 122.555C307.981 120.901 310.92 120.412 313.163 119.022C315.404 117.631 311.888 117.073 309.956 117.155C308.025 117.237 305.836 117.31 306.009 115.85C306.181 114.39 313.719 104.234 313.728 102.182C313.738 100.13 312.004 101.392 312.004 101.392C312.004 101.392 313.769 98.8752 312.962 97.9047C312.753 97.6523 311.857 97.4062 310.874 98.4272C308.661 100.723 304.265 105.781 304.265 105.781C304.523 105.496 309.503 98.8664 310.12 97.776C310.925 96.3512 310.578 95.2684 309.738 94.828C308.54 94.2007 302.085 102.212 301.576 102.358C301.576 102.358 305.447 97.8706 304.836 96.2376C304.225 94.6046 301.635 97.2964 299.801 100.103C298.12 102.676 294.148 107.285 292.694 110.067C290.901 113.494 290.468 116.199 292.7 119.058C294.931 121.918 297.647 122.899 297.647 122.899L297.645 122.901Z" fill="#FFBBB5"/>
<path d="M290.98 115.859C290.98 115.859 269.142 146.9 267.444 158.833C265.747 170.766 292.685 205.459 292.685 205.459L311.478 196.384C311.478 196.384 285.411 166.026 285.607 158.429C285.801 150.832 301.819 120.191 301.819 120.191L290.98 115.859Z" fill="#FFBBB5"/>
<path d="M300.125 213.484C296.48 210.556 279.785 193.688 279.785 193.688L293.321 170.914C293.321 170.914 312.643 181.892 323.943 190.334C335.523 198.99 311.826 215.743 300.126 213.484H300.125Z" fill="#263238"/>
<path opacity="0.2" d="M300.125 213.484C296.48 210.556 279.785 193.688 279.785 193.688L293.321 170.914C293.321 170.914 312.643 181.892 323.943 190.334C335.523 198.99 311.826 215.743 300.126 213.484H300.125Z" fill="white"/>
</svg>
